<svg xmlns="http://www.w3.org/2000/svg" width="492" height="507" viewBox="0 0 492 507">
<g>
<path d="M 234.00 312.48 C221.61,310.32 219.63,309.34 215.35,303.25 C213.92,301.21 213.91,300.78 215.33,298.61 C217.80,294.84 222.80,292.43 232.37,290.39 L 241.23 288.50 L 240.62 283.00 C240.28,279.98 239.59,275.48 239.09,273.00 C235.02,252.78 231.80,237.94 229.55,229.00 C228.79,225.98 227.87,221.30 227.51,218.62 C227.03,215.13 226.87,213.23 225.84,212.21 C224.52,210.89 221.78,211.01 215.14,211.01 C204.30,211.03 193.38,212.92 189.86,215.38 C187.96,216.72 187.96,216.76 190.10,217.32 C192.03,217.82 192.21,218.37 191.71,222.15 C191.34,224.92 191.66,227.01 193.96,232.83 C193.59,232.35 193.28,232.53 192.87,233.26 C192.45,234.01 193.64,238.01 195.37,242.60 L 190.50 230.84 L 189.75 236.54 C189.60,236.16 189.23,236.00 188.62,236.00 C187.44,236.00 187.00,236.94 187.00,239.50 C187.00,241.43 187.45,243.00 188.00,243.00 C188.55,243.00 189.01,242.44 189.01,241.75 C189.02,241.14 189.24,239.83 189.52,238.68 C189.24,241.94 189.11,246.36 189.23,249.49 C189.50,256.38 189.55,256.50 192.50,257.12 C192.64,257.16 192.79,257.19 192.95,257.22 C191.67,257.13 191.02,257.50 190.68,258.40 C190.17,259.72 190.85,260.00 194.47,260.00 C196.90,260.00 199.16,259.55 199.50,259.00 C199.84,258.45 199.47,258.00 198.68,258.00 C198.01,258.00 196.45,257.80 194.98,257.54 C196.27,257.71 197.62,257.84 198.63,257.88 L 201.76 258.00 L 198.62 250.42 C200.18,253.87 201.71,256.75 202.68,257.77 C203.68,258.81 204.62,259.58 204.77,259.48 C204.91,259.38 202.97,254.40 200.45,248.40 C199.46,246.04 198.46,243.64 197.58,241.51 C205.67,260.48 206.30,262.56 205.58,266.41 C204.91,269.97 199.39,276.65 195.30,278.84 C192.32,280.44 184.47,280.30 181.20,278.59 C175.04,275.37 169.07,265.69 170.97,262.01 C171.39,261.18 172.98,256.99 174.49,252.70 C174.95,251.37 175.58,249.67 176.30,247.79 C176.11,249.30 177.59,249.45 178.69,247.76 C178.90,247.44 179.11,247.08 179.33,246.67 C179.21,246.96 179.08,247.24 178.96,247.50 C177.48,250.80 175.94,254.57 175.53,255.88 C174.79,258.25 174.80,258.26 180.64,257.53 C180.96,257.49 181.28,257.45 181.59,257.41 C181.59,257.41 181.58,257.41 181.58,257.41 C180.44,257.72 178.76,257.98 177.86,257.99 C176.95,257.99 175.94,258.73 175.60,259.61 C175.14,260.79 175.40,261.06 176.57,260.61 C177.45,260.28 179.40,260.00 180.92,260.00 C182.75,260.00 183.67,259.48 183.67,258.43 C183.67,257.68 183.39,257.30 182.76,257.25 C184.99,256.94 186.66,256.65 186.78,256.54 C186.93,256.39 186.93,250.25 186.78,242.89 L 186.50 229.50 L 184.08 235.50 C183.52,236.89 182.78,238.66 182.01,240.48 C183.35,236.76 184.26,233.17 183.70,232.82 C183.19,232.50 181.72,234.83 180.14,238.07 C180.61,236.90 181.08,235.77 181.52,234.74 C185.35,225.64 185.66,224.35 184.40,222.56 C183.63,221.46 183.00,219.72 183.00,218.69 C183.00,216.00 193.00,206.79 198.66,204.27 C207.41,200.38 217.35,196.73 227.00,193.86 C235.02,191.48 239.26,190.18 241.17,191.73 C243.34,193.50 242.50,198.97 240.77,210.74 L 238.32 227.50 L 241.41 232.23 C243.11,234.83 244.84,236.97 245.25,236.98 C245.66,236.99 247.36,234.86 249.03,232.25 C251.32,228.66 251.96,226.64 251.65,224.00 C251.42,222.07 250.46,214.50 249.50,207.16 C247.91,194.94 247.89,193.68 249.35,192.22 C250.77,190.80 251.71,190.77 257.72,191.95 C261.45,192.67 266.08,194.05 268.00,195.01 C269.92,195.97 273.08,197.09 275.00,197.50 C280.06,198.57 298.00,207.63 301.34,210.80 C306.10,215.33 307.41,218.72 306.02,222.92 C304.97,226.13 305.14,227.29 307.89,234.22 C307.03,232.32 306.23,231.37 305.79,231.81 C305.26,232.34 306.75,237.09 308.76,242.32 C306.38,236.52 304.33,231.71 303.92,231.00 C303.41,230.11 303.05,235.05 303.03,243.25 L 303.03 243.93 C302.87,240.22 302.35,236.72 301.47,235.56 C300.15,233.81 300.00,234.69 300.00,244.31 C300.00,253.15 300.26,255.00 301.50,255.00 C302.34,255.00 302.85,252.40 303.02,249.08 L 303.00 257.00 L 306.25 257.10 C306.29,257.10 306.32,257.10 306.36,257.10 C306.17,257.25 306.48,257.62 307.11,258.26 C307.97,259.12 309.76,259.97 311.09,260.16 C312.41,260.35 313.66,260.14 313.85,259.69 C314.18,258.94 314.12,258.57 312.95,258.19 C313.92,258.42 314.70,258.52 314.84,258.41 C315.01,258.28 313.33,253.69 310.97,247.77 C312.88,252.24 314.79,256.08 315.70,256.75 C316.62,257.44 317.50,258.00 317.64,258.00 C317.91,258.00 316.22,253.78 313.59,247.83 C318.96,259.77 319.80,262.94 318.83,266.76 C317.72,271.13 313.41,276.22 308.78,278.61 C301.52,282.37 290.26,278.28 286.59,270.55 C284.90,266.98 284.49,263.55 285.95,257.96 C286.06,257.83 286.19,257.68 286.33,257.50 C287.22,256.40 287.97,255.95 288.01,256.50 C288.05,257.05 289.62,253.76 291.49,249.19 C293.36,244.62 294.63,240.20 294.31,239.36 C294.02,238.60 292.32,241.59 290.07,246.53 C291.58,242.99 293.45,238.86 295.73,234.00 C297.81,229.55 298.61,226.31 298.20,223.78 C298.47,224.24 298.57,223.86 298.81,222.67 C299.14,221.00 298.57,219.65 297.80,219.96 C298.04,219.41 298.43,218.85 298.93,218.30 C300.43,216.69 300.62,215.94 299.71,215.23 C296.70,212.88 290.52,211.74 278.30,211.26 L 265.10 210.74 L 264.55 213.12 C261.74,225.31 259.76,234.41 257.61,245.00 C255.39,255.94 253.86,263.21 247.57,292.75 C246.84,296.19 246.39,299.00 246.56,299.00 C246.73,299.00 248.12,296.71 249.64,293.92 L 250.40 292.52 C250.36,292.85 250.89,292.60 252.18,291.90 C253.43,291.24 256.26,290.71 258.47,290.73 C260.46,290.75 261.42,290.74 261.48,290.63 C267.23,292.47 273.86,295.86 274.91,297.83 C278.65,304.81 272.04,310.01 256.16,312.59 C246.00,314.24 243.97,314.23 234.00,312.48 ZM 100.00 286.93 C109.49,285.48 117.29,283.92 123.36,282.24 L 125.81 281.56 C124.25,282.07 124.09,282.44 125.08,283.05 C125.86,283.53 126.99,283.42 127.74,282.80 C129.30,281.51 128.81,280.85 126.88,281.26 L 129.22 280.62 L 128.62 276.56 C128.30,274.33 127.69,270.48 127.27,268.00 C126.40,262.90 126.76,245.70 127.60,235.47 C127.79,235.55 128.02,235.54 128.30,235.44 C129.16,235.11 129.44,233.71 129.12,231.22 C128.87,229.19 128.73,228.33 128.52,228.45 C128.62,228.09 128.72,227.83 128.83,227.71 C129.56,226.83 130.01,225.07 129.83,223.81 C129.52,221.64 128.18,221.23 108.16,217.17 C96.43,214.79 86.63,213.04 86.39,213.28 C86.14,213.52 85.01,218.40 83.86,224.11 C80.54,240.62 80.88,269.90 84.58,286.86 C85.06,289.06 85.40,289.17 89.80,288.49 C90.02,288.45 90.26,288.42 90.51,288.38 C90.27,288.82 90.16,289.61 90.23,290.50 C90.38,292.26 91.46,293.07 93.64,292.95 C89.77,293.78 87.31,294.35 87.19,294.48 C86.50,295.16 89.29,304.57 92.81,313.71 C92.15,312.73 92.03,312.88 92.02,314.25 C91.98,318.12 88.45,315.24 87.62,310.67 C87.19,308.33 87.40,307.99 88.97,308.49 C90.74,309.05 90.76,308.84 89.40,304.29 C87.31,297.28 86.99,296.93 87.67,302.41 C88.20,306.69 88.06,307.24 86.64,306.69 C86.05,306.46 85.53,306.36 85.24,306.40 C85.08,305.77 85.00,305.29 85.00,304.99 C85.00,303.84 84.33,301.60 83.50,300.01 C83.17,299.37 82.80,298.33 82.43,297.08 C82.52,296.79 82.63,296.30 82.73,295.63 C82.96,294.05 82.61,292.25 81.94,291.63 C81.43,291.15 81.15,291.03 81.09,291.34 C81.06,291.16 81.03,290.98 81.00,290.81 C80.45,287.34 79.57,282.09 79.04,279.13 C75.98,261.99 76.78,238.84 81.15,218.00 C89.98,175.90 114.05,139.22 148.89,114.75 C158.21,108.20 159.87,107.20 170.50,101.71 C181.59,95.99 195.14,90.93 205.62,88.62 C209.40,87.78 214.30,86.60 216.50,86.00 C218.70,85.39 229.73,84.65 241.00,84.35 C257.30,83.91 263.55,84.14 271.49,85.44 C276.99,86.34 281.91,87.51 282.44,88.04 C282.97,88.57 284.55,89.00 285.95,89.01 C290.98,89.03 301.79,92.88 313.34,98.27 C313.29,98.37 314.11,99.13 315.45,100.18 C317.07,101.45 319.54,102.78 320.95,103.13 C322.35,103.48 323.61,103.82 323.75,103.88 C323.88,103.94 323.98,103.81 324.00,103.59 C330.25,106.92 336.27,110.49 341.24,113.95 C352.05,121.49 371.01,140.06 379.57,151.50 C385.00,158.76 389.79,166.38 393.93,174.29 C393.44,173.75 393.00,173.60 392.70,173.90 C392.13,174.47 392.50,175.82 393.64,177.38 C395.66,180.16 396.68,180.57 396.23,178.86 C405.21,197.37 410.68,217.35 412.41,237.95 C412.32,237.71 412.22,237.48 412.10,237.28 C411.17,235.69 411.06,235.68 411.03,237.17 C411.01,238.09 411.32,239.66 411.72,240.67 C412.29,242.11 412.43,242.32 412.67,241.34 C413.38,252.51 413.01,263.83 411.51,275.20 C411.32,276.65 411.11,278.10 410.88,279.54 C410.83,278.90 410.59,279.08 410.00,280.00 C409.14,281.33 409.02,281.33 408.90,280.00 C408.82,279.17 408.83,278.13 408.91,277.68 C408.99,277.22 408.63,277.11 408.11,277.43 C407.59,277.75 406.94,277.45 406.66,276.76 C406.64,276.69 406.61,276.64 406.59,276.59 C406.92,275.02 407.27,273.46 407.60,272.14 C409.20,265.57 409.38,244.80 407.90,236.50 C407.09,231.93 406.28,226.59 405.36,219.76 C405.01,217.15 404.21,214.59 403.59,214.08 C402.88,213.48 398.88,213.84 392.68,215.07 C387.29,216.12 381.23,217.23 379.19,217.52 C377.16,217.81 372.12,218.87 368.00,219.87 L 360.50 221.70 L 360.82 225.10 C360.99,226.97 361.64,230.30 362.25,232.50 C363.62,237.37 363.81,268.90 362.49,271.00 C361.97,271.83 361.42,274.34 361.27,276.60 L 361.00 280.69 L 368.25 282.42 C372.24,283.36 377.98,284.56 381.00,285.07 C384.02,285.58 388.98,286.64 392.00,287.41 C395.02,288.19 399.07,288.75 400.98,288.66 C404.23,288.51 404.47,288.36 405.17,284.01 C404.97,285.46 405.16,286.02 405.73,285.67 C406.30,285.31 407.39,285.76 408.14,286.67 C408.78,287.44 409.14,287.77 409.42,287.55 C402.44,321.24 385.62,351.41 361.72,374.67 C363.64,372.53 363.57,372.12 360.49,375.01 C358.60,376.78 357.69,377.09 356.83,376.23 C355.98,375.38 357.55,373.14 363.11,367.29 C369.56,360.53 377.14,351.81 372.93,356.00 C370.85,358.07 368.77,360.19 366.77,362.25 C380.49,347.31 389.43,333.25 395.66,317.18 C402.78,298.79 403.68,296.10 403.06,295.10 C402.55,294.28 368.09,286.43 362.50,285.86 C359.79,285.59 359.03,286.40 357.47,291.25 C356.54,294.14 355.14,297.51 354.36,298.75 C353.59,299.99 353.19,301.00 353.49,301.00 C354.50,301.00 348.62,311.53 342.60,320.50 C331.37,337.24 315.38,351.06 296.00,360.79 C288.61,364.49 280.39,367.31 271.76,369.21 C271.53,369.07 270.65,369.00 269.11,369.00 C265.59,369.00 265.71,367.53 269.35,365.90 C271.33,365.02 271.31,364.98 269.00,365.46 C267.84,365.70 265.88,365.93 264.31,366.02 C268.11,365.43 271.45,365.00 272.38,365.01 C274.40,365.01 288.82,359.83 292.00,357.96 C292.83,357.48 295.98,355.81 299.00,354.24 C317.87,344.50 335.74,326.56 346.41,306.65 C350.11,299.74 357.22,280.55 356.38,279.72 C356.14,279.47 356.57,277.29 357.36,274.88 C358.14,272.47 359.04,265.83 359.36,260.12 C359.69,254.20 359.27,246.91 358.35,239.53 C358.59,239.30 358.93,237.01 359.21,233.42 C359.43,230.48 359.14,229.33 358.16,229.33 C357.26,229.33 357.00,230.07 357.26,232.10 C355.29,220.42 352.23,209.63 349.07,205.00 C348.53,204.21 347.58,202.54 346.53,200.59 C347.36,201.75 348.23,202.46 348.72,202.27 C349.40,202.02 350.67,202.52 351.55,203.40 C353.46,205.32 353.99,205.42 353.31,203.62 C354.97,207.10 356.31,210.22 356.96,212.24 C357.61,214.29 358.57,216.23 359.09,216.55 C360.17,217.22 370.37,215.39 390.50,210.91 C396.00,209.69 400.81,208.42 401.18,208.09 C401.55,207.77 401.60,206.79 401.38,205.32 C401.55,205.84 401.70,206.24 401.82,206.45 C402.14,207.00 402.53,206.92 402.75,206.26 C402.96,205.63 402.42,203.86 401.56,202.31 L 399.99 199.50 L 400.10 200.00 C398.52,194.71 395.76,187.65 392.59,181.22 C390.62,177.22 389.00,173.73 389.00,173.46 C389.00,172.38 377.56,155.35 373.67,150.64 C366.95,142.49 351.83,127.07 347.50,123.92 C339.10,117.83 327.30,110.10 322.50,107.54 C288.23,89.27 245.94,83.47 210.00,92.11 C190.82,96.72 173.32,104.02 157.77,113.78 C158.18,113.28 157.80,113.00 156.61,113.00 C155.84,113.00 154.95,113.69 154.63,114.52 C154.23,115.57 154.35,115.80 155.36,115.33 C130.81,131.35 111.29,153.67 97.91,181.39 C92.93,191.69 88.00,204.44 88.00,206.98 C88.00,207.90 97.14,210.28 112.90,213.46 C119.72,214.84 125.53,216.20 125.81,216.48 C126.10,216.77 127.50,216.99 128.92,216.98 C131.08,216.97 131.85,216.12 133.68,211.73 C134.88,208.85 136.17,205.38 136.55,204.00 C136.92,202.62 139.14,198.57 141.47,195.00 C143.80,191.43 146.72,186.51 147.96,184.08 C148.47,183.09 149.22,181.94 150.16,180.68 C149.69,181.41 149.59,181.74 149.98,181.50 C152.52,179.95 154.86,180.18 154.24,181.92 C153.93,182.79 153.87,183.27 154.09,183.00 C154.32,182.73 155.62,181.16 157.00,179.53 C158.38,177.90 158.69,177.18 157.71,177.94 C156.36,178.97 155.63,179.03 154.77,178.17 C153.91,177.31 154.21,176.40 155.99,174.51 C156.99,173.45 157.69,172.54 157.82,172.17 C166.88,163.19 179.77,152.92 188.33,148.54 C192.28,146.53 196.18,144.50 197.00,144.04 C204.48,139.86 226.98,134.35 240.50,133.39 C241.75,133.30 242.90,133.24 244.04,133.22 C238.02,133.42 229.44,134.63 233.22,134.88 C235.62,135.05 234.38,137.78 231.67,138.31 C227.73,139.07 234.11,139.07 241.10,138.29 L 247.50 137.59 L 237.50 135.32 L 245.00 134.29 L 250.74 133.51 C255.23,133.97 261.32,134.99 272.00,136.91 C272.73,137.04 273.50,137.19 274.28,137.35 C274.44,137.55 274.69,137.83 275.03,138.20 C275.84,139.08 276.84,139.59 277.25,139.34 C277.66,139.09 278.00,139.36 278.00,139.94 C278.00,140.52 276.54,141.05 274.75,141.10 L 271.50 141.21 L 275.50 142.53 C276.14,142.74 276.70,142.92 277.20,143.08 C275.32,142.50 273.42,141.97 271.50,141.48 C261.73,138.98 258.77,138.67 245.00,138.70 C227.33,138.74 217.99,140.50 202.50,146.72 C176.51,157.16 154.96,177.01 142.35,202.10 C131.91,222.90 128.02,253.06 132.94,275.21 C135.52,286.83 138.73,296.53 142.47,304.00 C142.54,304.15 142.61,304.29 142.69,304.44 C141.21,302.02 140.11,300.82 139.78,301.34 C139.24,302.21 138.54,302.18 137.00,301.22 C136.47,300.89 136.11,300.71 135.93,300.77 C134.96,298.42 134.10,296.06 133.36,293.69 C132.36,290.50 131.24,287.38 130.85,286.76 C130.36,285.97 123.97,286.86 108.91,289.83 C104.84,290.63 101.00,291.41 97.71,292.09 C97.81,292.06 97.90,292.03 98.00,292.00 C100.21,291.29 100.04,291.17 96.50,290.98 C94.30,290.86 92.11,290.83 91.63,290.92 C91.15,291.01 91.02,290.39 91.35,289.54 C91.55,289.00 91.56,288.52 91.40,288.24 C94.02,287.84 97.53,287.30 100.00,286.93 ZM 282.75 337.83 C282.31,339.54 282.55,339.62 285.10,338.66 C286.76,338.03 287.49,337.30 286.84,336.90 C286.24,336.53 286.08,335.68 286.49,335.01 C287.06,334.09 286.76,334.06 285.25,334.87 C285.13,334.93 285.01,335.00 284.89,335.08 C288.26,332.47 290.50,328.03 293.43,319.21 C293.91,317.76 294.90,315.82 296.12,313.80 C296.46,313.44 296.92,312.91 297.47,312.25 C300.25,308.87 302.47,308.11 303.34,310.25 C303.43,310.47 303.52,310.57 303.60,310.56 C303.40,311.51 303.20,312.51 303.03,313.50 C302.35,317.35 301.37,321.57 300.86,322.88 C299.49,326.37 300.39,326.47 303.52,323.16 C306.75,319.73 308.96,313.97 308.98,308.93 C309.00,305.33 310.80,297.77 312.66,292.55 C312.92,292.45 313.35,292.19 313.93,291.82 C315.10,291.10 316.31,289.50 316.65,288.24 L 316.83 293.31 C317.00,297.81 317.20,303.23 317.27,305.34 C317.37,308.52 317.60,308.90 318.56,307.59 C319.20,306.72 320.17,306.00 320.72,306.00 C322.23,306.00 323.03,296.68 321.88,292.51 C320.62,287.95 320.29,274.74 321.32,269.75 C321.46,269.07 321.62,268.48 321.79,267.99 C321.68,268.53 321.53,269.16 321.37,269.76 C320.88,271.57 321.09,271.90 322.38,271.41 C323.29,271.06 323.88,269.58 323.99,268.26 C323.99,268.45 324.00,268.66 324.00,268.88 C324.00,270.46 324.75,273.50 325.66,275.63 C326.57,277.76 327.85,281.75 328.49,284.50 L 329.67 289.50 L 330.94 285.66 C331.26,284.70 331.46,283.72 331.54,282.67 C331.70,283.96 332.08,285.17 332.50,285.65 C333.25,286.52 333.59,286.52 333.87,285.65 C334.08,285.02 335.43,283.16 336.87,281.52 C338.47,279.70 338.68,279.21 337.42,280.27 C334.76,282.48 333.01,282.48 332.96,280.25 C332.95,279.29 332.25,277.38 331.42,276.00 L 329.92 273.50 L 330.66 276.00 C330.74,276.27 330.82,276.58 330.89,276.91 C330.23,274.30 329.06,271.18 327.32,267.22 C326.04,264.32 325.00,260.86 325.00,259.53 C325.00,258.20 324.55,256.84 324.00,256.50 C323.45,256.16 323.03,253.32 323.06,250.19 C323.07,248.65 323.11,247.55 323.17,246.81 C323.12,247.84 323.10,249.23 323.14,250.75 C323.21,253.91 323.47,255.46 323.71,254.19 C323.96,252.92 324.78,251.64 325.55,251.34 C326.60,250.94 326.71,250.48 325.84,248.67 C326.70,249.93 327.77,251.47 328.78,252.89 C330.59,255.42 332.84,259.18 333.78,261.24 C335.92,265.89 337.00,266.02 337.00,261.63 C337.00,257.80 333.29,250.56 329.51,247.01 C326.66,244.33 322.29,235.70 321.32,230.83 L 320.68 227.63 L 323.68 229.77 C325.34,230.95 329.01,234.00 331.84,236.55 C337.33,241.48 338.09,240.99 335.10,234.41 C333.70,231.34 331.46,229.13 326.17,225.61 C324.81,224.71 323.58,223.84 322.45,222.96 C323.54,222.61 321.40,219.93 317.21,216.49 C315.15,214.80 314.12,214.08 314.14,214.40 C313.30,213.26 312.47,212.02 311.62,210.66 C311.40,210.30 311.20,209.98 311.03,209.68 C311.77,210.83 313.53,211.58 315.80,211.70 L 319.44 211.91 L 315.08 209.43 C312.49,207.96 310.98,207.31 310.44,207.48 C310.83,207.18 312.04,207.65 314.12,208.82 C315.98,209.86 320.54,212.35 324.26,214.35 L 331.03 217.98 L 329.09 214.17 C329.08,214.17 329.08,214.16 329.08,214.16 C329.54,214.68 330.21,215.12 330.84,215.26 C332.19,215.56 332.80,215.60 332.79,215.01 L 334.78 219.50 L 335.52 215.67 C335.92,213.56 336.03,208.44 335.77,204.28 C335.63,202.12 335.53,200.58 335.50,199.53 C335.79,201.24 336.08,204.81 336.18,208.00 L 336.38 214.50 L 336.74 208.68 C337.16,201.97 338.50,201.59 341.36,207.36 C342.33,209.31 343.33,210.72 343.68,210.63 C344.91,215.28 344.15,219.87 341.65,225.92 C339.04,232.24 338.24,239.26 339.85,241.79 C340.92,243.48 343.61,237.52 345.20,230.17 C345.32,230.60 345.80,230.60 346.80,230.34 C348.42,229.92 348.94,230.46 349.55,233.16 C349.94,234.91 350.45,235.85 350.70,235.34 C351.03,238.78 350.80,242.09 349.94,244.24 C349.23,246.04 346.89,249.62 344.76,252.21 C340.75,257.08 339.00,261.39 339.00,266.37 C339.00,269.20 339.08,269.16 343.00,264.24 C345.20,261.47 347.00,258.71 347.00,258.09 C347.00,257.73 347.14,257.12 347.36,256.50 C347.36,256.82 347.84,256.62 348.95,256.02 C350.39,255.25 350.98,253.98 350.93,251.71 C350.93,251.52 350.92,251.34 350.92,251.17 C351.07,252.01 351.22,253.29 351.42,255.08 C351.80,258.70 351.79,262.97 351.39,264.57 C350.33,268.81 345.55,274.98 340.18,279.04 C336.27,282.00 331.31,289.16 331.06,292.22 C330.89,294.24 338.63,288.02 342.67,282.89 C342.76,282.77 342.85,282.66 342.94,282.54 C341.97,283.94 341.85,284.66 342.54,284.81 C344.50,285.26 345.30,288.58 344.02,290.96 C343.42,292.08 343.15,293.00 343.43,293.00 C343.53,293.00 343.64,292.97 343.75,292.90 C341.14,296.90 334.81,301.38 329.47,302.98 C324.72,304.40 323.22,305.49 320.25,309.72 C317.35,313.84 317.42,314.19 320.75,312.45 C322.26,311.66 324.41,311.01 325.52,311.01 C326.63,311.00 329.90,308.93 332.80,306.39 L 335.13 304.36 C333.59,305.87 333.37,306.62 334.24,307.17 C334.86,307.56 335.43,307.90 335.61,307.97 C332.75,314.68 329.94,317.85 324.87,320.38 C321.97,321.82 318.01,323.00 316.05,323.01 C311.57,323.01 307.21,324.28 304.08,326.43 C305.18,325.52 307.16,324.47 308.64,324.03 C311.01,323.32 311.12,323.16 309.31,323.09 C308.10,323.04 306.84,322.54 306.49,321.98 C305.55,320.47 304.33,321.61 303.10,325.16 C302.46,326.98 302.21,327.73 302.50,327.69 C301.10,328.95 300.00,330.13 300.00,330.38 C300.00,331.76 310.69,329.68 315.10,327.45 C315.67,327.16 316.22,326.89 316.74,326.65 C315.03,327.65 314.95,327.94 316.29,327.96 C317.79,327.99 317.90,328.35 316.98,330.25 C316.58,331.07 316.33,331.59 316.26,331.81 C314.48,333.76 312.49,335.63 310.98,336.63 C307.06,339.22 306.65,339.28 296.57,338.67 C287.22,338.09 285.70,338.25 281.34,340.23 L 276.50 342.42 L 283.00 343.23 C286.58,343.68 291.52,343.80 294.00,343.50 L 298.50 342.96 L 295.00 346.08 C290.78,349.86 286.10,352.00 282.10,352.00 C280.47,352.00 275.47,350.65 270.98,348.99 C266.75,347.43 264.68,346.69 262.40,346.50 C263.97,346.29 264.34,345.93 263.84,345.32 C263.17,344.51 263.52,343.48 264.93,342.07 C267.28,339.72 266.52,339.22 264.02,341.48 C263.67,341.80 262.97,342.16 262.07,342.50 C266.23,340.20 272.04,334.27 274.53,329.43 C274.83,328.84 275.22,328.23 275.69,327.62 C276.51,327.12 278.35,325.81 281.76,323.37 C283.31,322.26 284.40,322.07 285.26,322.76 C286.04,323.40 286.86,322.99 288.12,321.24 C287.08,323.02 285.79,325.46 284.61,327.87 C284.27,328.59 283.92,329.30 283.57,329.99 C283.77,329.55 283.98,329.13 284.16,328.77 C284.84,327.44 284.70,327.18 283.52,327.63 C282.66,327.96 282.03,329.35 282.08,330.86 C282.10,331.72 282.20,332.25 282.33,332.40 C281.21,334.53 280.27,336.18 279.88,336.65 C278.93,337.78 279.07,337.92 280.61,337.36 C282.08,336.83 283.36,336.19 284.50,335.37 C283.68,336.05 282.96,337.03 282.75,337.83 ZM 256.03 345.96 C255.29,346.43 255.74,346.68 257.44,346.72 C256.43,346.84 255.27,346.99 253.91,347.17 C247.04,348.09 242.96,348.09 236.11,347.18 C227.27,346.00 227.19,346.01 220.17,349.00 C212.52,352.25 207.52,352.77 201.98,350.62 C201.68,350.16 200.47,349.29 198.40,348.07 C195.41,346.31 195.01,345.70 196.02,344.47 C196.46,343.94 196.69,343.59 196.65,343.37 C199.12,343.60 202.56,343.61 205.39,343.35 C212.27,342.72 212.27,342.71 209.90,340.92 C206.58,338.42 202.54,337.89 195.02,338.98 C185.34,340.37 180.71,338.88 174.25,332.28 C173.22,331.23 172.26,330.20 171.45,329.28 C172.14,329.99 172.70,330.27 172.83,329.91 C173.02,329.41 174.14,328.99 175.33,328.97 C176.91,328.95 176.42,328.45 173.50,327.12 C173.18,326.97 172.86,326.83 172.56,326.70 C173.24,326.92 173.98,327.19 174.75,327.50 C177.91,328.74 182.75,330.03 185.50,330.36 L 190.50 330.96 L 186.86 327.57 C183.88,324.79 182.15,324.05 177.36,323.52 C175.37,323.30 173.74,323.11 172.36,322.91 C173.13,322.86 172.97,322.63 172.00,322.00 C171.18,321.47 169.38,321.06 168.00,321.09 C166.82,321.11 166.24,321.14 166.20,321.28 C164.74,320.55 163.47,319.53 161.70,317.97 C159.96,316.43 157.61,313.31 155.66,310.22 C155.72,310.22 155.78,310.17 155.81,310.07 C156.01,309.48 157.06,309.00 158.16,309.00 C159.83,309.00 159.61,308.55 156.83,306.27 C156.50,305.99 156.16,305.72 155.84,305.44 C159.86,308.69 170.88,314.45 171.71,313.63 C172.20,313.13 171.99,312.82 167.77,307.79 C166.52,306.29 163.02,304.12 160.00,302.96 C156.98,301.79 153.04,299.73 151.26,298.38 C148.48,296.27 145.56,291.30 143.84,286.20 C143.99,286.03 144.15,285.80 144.35,285.54 C145.16,284.43 146.19,284.00 146.95,284.47 C148.55,285.46 146.97,282.59 143.94,279.00 L 143.11 278.02 C143.79,278.70 144.92,280.17 146.71,282.50 C148.39,284.70 151.83,287.98 154.34,289.78 L 158.92 293.06 L 156.86 288.12 C155.85,285.68 154.61,283.79 152.63,281.80 C154.28,283.42 155.61,285.05 156.03,286.07 C156.71,287.72 157.45,288.89 157.67,288.67 C157.89,288.45 158.18,285.53 158.31,282.18 C158.31,282.16 158.31,282.14 158.32,282.12 C158.35,283.81 158.58,285.37 159.04,286.50 L 160.26 289.50 L 161.46 284.99 C162.13,282.52 163.13,279.59 163.70,278.49 C164.18,277.57 165.00,275.04 165.68,272.46 C165.52,273.60 165.92,273.44 167.09,272.71 C168.32,271.94 168.71,271.00 168.40,269.40 L 168.70 270.50 C170.02,275.36 169.97,280.06 168.43,297.50 C167.86,303.96 167.99,304.67 170.16,306.69 L 172.50 308.88 L 172.66 305.19 C172.75,303.16 172.94,297.78 173.07,293.24 C173.13,291.23 173.21,289.40 173.28,288.00 C173.27,288.92 173.27,290.01 173.29,291.19 C173.34,295.08 173.61,296.54 174.00,295.00 C174.37,293.58 175.31,292.55 176.21,292.62 C177.08,292.69 177.35,292.47 176.92,291.44 C179.38,295.99 180.39,299.60 181.43,307.50 C182.76,317.57 183.79,320.82 186.78,324.25 C188.83,326.60 190.33,326.48 189.04,324.07 C188.47,323.00 188.00,321.00 188.00,319.61 C188.00,318.23 187.34,314.83 186.48,311.40 L 186.71 310.19 C187.14,307.93 187.22,307.92 189.83,309.57 C190.59,310.05 191.03,310.28 191.12,310.20 C194.11,314.21 196.99,319.37 199.00,324.50 C201.91,331.93 203.14,333.79 206.69,336.14 C210.24,338.47 211.78,338.53 209.77,336.25 C209.39,335.82 208.79,334.87 208.10,333.66 C208.68,334.24 209.00,333.89 209.00,332.61 C209.00,331.84 208.31,330.95 207.48,330.63 C206.84,330.39 206.51,330.33 206.45,330.55 C206.11,329.88 205.78,329.18 205.46,328.50 C204.85,327.16 204.13,325.73 203.43,324.38 C203.72,324.31 204.12,324.02 204.61,323.53 C206.08,322.06 206.44,322.06 208.61,323.48 C209.74,324.22 210.69,324.68 210.94,324.62 C213.23,326.71 215.44,329.10 217.01,331.24 C224.31,341.21 226.12,342.61 233.59,344.02 C238.99,345.04 248.45,345.00 255.79,344.06 C253.21,344.54 252.76,344.82 254.50,344.90 C256.76,345.00 257.14,345.26 256.03,345.96 ZM 233.50 422.33 C215.08,420.81 192.24,415.50 181.30,410.21 C158.43,399.13 151.41,394.83 137.74,383.49 C131.52,378.34 122.71,369.62 116.68,362.91 C117.48,363.46 118.03,363.39 118.62,362.90 C119.73,361.98 120.47,362.12 122.05,363.55 C123.16,364.55 123.83,365.99 123.55,366.74 C123.26,367.49 123.44,367.85 123.94,367.54 C124.44,367.23 126.13,368.09 127.68,369.45 C132.38,373.59 131.56,372.34 124.87,365.19 C120.27,360.26 118.28,358.74 117.70,359.69 C116.49,361.68 115.72,361.31 113.11,357.47 C111.79,355.54 110.49,354.18 110.21,354.45 C110.16,354.51 110.17,354.64 110.25,354.84 C108.84,352.70 107.16,350.24 106.29,349.05 C104.20,346.19 100.07,339.50 96.93,334.01 C97.40,334.63 97.79,335.00 98.00,335.00 C99.64,335.00 99.14,332.21 97.25,330.81 C93.33,327.88 89.56,316.11 92.75,316.75 C93.38,316.88 93.76,316.77 93.89,316.45 C101.95,336.38 113.30,353.51 129.18,369.67 C141.21,381.91 148.36,387.57 160.56,394.51 C163.47,396.16 166.22,397.89 166.67,398.34 C168.83,400.51 190.48,408.83 203.66,412.55 C220.52,417.32 226.60,417.96 249.40,417.37 C267.03,416.91 270.60,416.52 280.67,413.96 C294.49,410.44 298.17,409.21 308.66,404.59 C313.15,402.62 317.29,401.00 317.85,401.00 C318.41,401.00 321.78,399.01 325.32,396.58 C328.87,394.16 333.29,391.39 335.14,390.44 C340.54,387.66 343.60,385.14 355.73,373.50 C357.63,371.67 359.46,369.87 361.22,368.08 C355.91,373.76 352.28,377.98 353.00,377.83 C354.01,377.61 354.47,378.25 354.42,379.80 C354.39,380.60 354.43,381.07 354.73,381.10 C338.28,395.40 318.93,406.62 297.46,413.82 C281.54,419.16 262.25,422.38 245.60,422.68 C252.77,422.40 263.41,421.38 260.25,421.16 C259.01,421.07 258.00,420.36 258.00,419.57 C258.00,418.78 259.01,417.94 260.25,417.71 C264.00,416.98 255.77,416.93 250.57,417.65 C247.60,418.05 246.33,418.59 247.15,419.09 C249.13,420.32 247.64,421.13 241.82,421.98 L 237.60 422.59 C236.20,422.53 234.84,422.44 233.50,422.33 ZM 166.14 251.13 C166.26,253.21 166.27,253.44 166.58,251.91 C166.57,252.00 166.56,252.08 166.55,252.17 C165.86,259.15 163.05,268.40 160.35,272.56 C159.24,274.29 158.52,277.32 158.35,280.28 C158.35,278.05 158.13,276.77 157.80,277.30 C157.37,277.96 157.02,279.51 157.02,280.75 C156.99,283.76 155.93,283.59 152.50,280.00 C150.92,278.35 149.18,277.00 148.64,277.00 C148.10,277.00 146.83,276.26 145.83,275.35 C145.00,274.60 144.30,274.15 144.08,274.20 C142.81,272.87 141.81,271.64 141.37,270.79 C138.42,265.16 137.49,254.00 139.97,254.00 C140.38,254.00 142.34,256.63 144.33,259.85 C146.32,263.07 148.70,266.33 149.64,267.10 C151.20,268.39 151.28,268.13 150.69,263.76 C150.09,259.40 146.25,251.68 144.26,250.85 C143.07,250.36 141.64,248.11 140.57,245.51 C140.65,245.24 140.73,244.79 140.83,244.13 C141.01,242.83 140.68,241.28 140.08,240.68 C139.64,240.24 139.32,240.23 139.14,240.54 C139.06,239.95 139.01,239.39 139.01,238.88 C139.02,235.89 139.95,231.24 141.14,227.54 C141.36,227.81 141.88,228.00 142.50,228.00 C143.53,228.00 143.99,226.99 143.96,224.75 L 143.96 224.05 C143.96,224.27 143.97,224.52 143.97,224.78 C144.01,229.57 149.10,244.44 150.14,242.81 C150.76,241.84 151.03,239.53 151.02,236.96 C151.10,239.46 151.54,239.32 153.43,237.43 C153.54,237.31 153.65,237.20 153.75,237.10 C153.18,238.39 153.00,239.50 153.30,240.34 C153.52,240.98 157.58,237.63 162.33,232.90 C164.43,230.80 166.05,229.20 167.27,228.08 C167.17,228.19 167.08,228.30 166.99,228.41 C165.62,230.01 165.01,231.03 165.64,230.67 C166.29,230.30 167.06,230.98 167.44,232.26 C168.08,234.43 168.13,234.44 168.90,232.50 C168.91,232.46 168.93,232.43 168.94,232.39 C168.88,232.59 168.82,232.79 168.76,233.00 C167.46,237.27 165.95,239.75 159.94,247.50 C157.38,250.80 154.77,254.48 154.14,255.68 C152.74,258.37 152.63,265.00 154.00,265.00 C154.55,265.00 155.00,264.50 155.00,263.88 C155.00,263.27 156.69,260.47 158.75,257.67 C160.36,255.47 162.21,252.55 163.39,250.39 C163.19,250.98 163.52,250.82 164.35,250.13 C165.80,248.92 166.02,249.04 166.14,251.13 ZM 189.69 193.64 C190.11,194.74 190.47,194.81 191.70,193.76 C190.86,194.62 189.81,195.63 188.64,196.69 C185.03,200.00 181.10,202.42 176.86,203.95 C168.92,206.82 163.84,209.75 161.42,212.86 C161.91,211.86 161.72,211.44 160.85,210.91 C160.14,210.47 158.97,211.28 158.11,212.48 C159.21,208.34 159.13,203.51 157.85,198.73 C157.76,198.41 157.69,198.11 157.62,197.82 C157.73,197.94 157.86,198.00 158.00,198.00 C158.55,198.00 158.97,196.09 158.93,193.75 C158.89,191.44 158.78,190.50 158.48,190.68 C158.50,190.64 158.52,190.60 158.54,190.56 C160.73,185.94 167.49,178.57 168.80,179.38 C169.34,179.71 169.16,182.09 168.36,185.19 C167.61,188.08 167.00,191.95 167.00,193.80 L 167.00 197.16 L 170.46 192.83 C170.56,192.70 170.67,192.57 170.78,192.43 C170.84,192.43 170.96,192.36 171.15,192.21 C172.10,191.47 172.95,191.33 173.15,191.88 C173.34,192.41 174.62,191.92 176.00,190.78 C177.64,189.42 178.07,188.56 177.24,188.27 C176.55,188.03 176.24,187.42 176.55,186.91 C177.85,184.81 175.84,186.10 173.55,188.61 C175.07,186.41 176.70,183.92 177.95,181.84 C180.19,178.14 183.82,173.83 186.13,172.14 C190.24,169.12 199.00,166.56 203.09,167.18 C205.02,167.47 204.85,167.93 200.93,173.00 C195.51,179.99 188.48,185.47 181.67,188.02 C176.86,189.82 173.48,192.40 171.65,195.65 C170.98,196.84 184.41,194.28 190.13,192.15 C189.63,192.54 189.47,193.06 189.69,193.64 ZM 325.66 182.54 C326.69,183.32 327.36,183.77 327.69,183.92 C328.27,184.63 328.78,185.32 329.18,185.95 C332.22,190.74 332.88,197.51 331.06,205.32 C330.48,207.82 330.54,209.39 331.55,212.09 C330.81,210.50 330.37,208.04 330.58,206.48 C330.94,203.70 330.91,203.67 330.11,206.00 C329.63,207.38 329.48,209.58 329.77,210.90 C330.12,212.53 329.93,213.07 329.16,212.60 C328.51,212.20 328.28,212.39 328.50,213.11 C327.03,210.71 325.13,209.45 319.82,207.05 C315.79,205.23 311.15,203.12 309.50,202.36 C306.61,201.04 299.00,194.47 299.00,193.31 C299.00,192.99 300.91,193.04 303.25,193.42 C305.59,193.80 309.02,194.32 310.89,194.59 C312.75,194.86 315.15,195.55 316.22,196.12 C318.97,197.59 319.21,196.86 317.10,193.45 C315.80,191.35 313.20,189.67 308.13,187.63 C302.19,185.24 299.68,183.43 293.32,176.94 C291.29,174.87 289.66,173.19 288.39,171.83 C288.93,172.18 288.85,171.58 288.03,170.05 C287.21,168.52 287.36,167.89 288.74,167.08 C289.19,166.82 289.48,166.62 289.58,166.47 C290.65,166.72 291.77,167.05 292.73,167.41 C294.80,168.19 297.75,169.10 299.28,169.44 C303.47,170.36 309.31,176.23 313.02,183.23 C314.84,186.68 317.61,190.82 319.17,192.44 C320.72,194.06 322.00,195.74 322.00,196.19 C322.00,196.64 322.36,197.00 322.80,197.00 C324.19,197.00 322.36,185.22 320.34,180.81 C320.86,181.38 321.44,181.61 322.10,181.48 C323.04,181.30 324.65,181.78 325.66,182.54 ZM 261.38 366.49 C261.41,366.48 261.44,366.48 261.46,366.47 C261.72,366.61 262.20,366.81 262.86,367.07 C264.85,367.87 265.02,368.27 263.96,369.55 C263.40,370.23 263.22,370.59 263.67,370.70 C243.82,373.70 222.54,372.05 204.60,365.51 C179.19,356.25 155.55,335.92 142.00,312.89 C142.05,312.69 141.96,312.14 141.74,311.25 C141.01,308.27 142.73,308.39 145.18,311.50 C148.04,315.14 148.14,314.60 145.32,309.20 C149.95,317.10 156.76,326.75 161.29,331.62 C172.43,343.60 190.86,355.91 204.66,360.61 C208.97,362.08 212.95,363.63 213.50,364.06 C214.52,364.85 234.77,367.74 243.00,368.28 C248.18,368.61 249.36,368.50 261.38,366.49 ZM 230.35 324.57 C225.20,323.39 220.38,321.31 217.30,319.08 C217.07,318.48 216.62,317.52 215.96,316.16 C214.94,314.04 214.36,311.34 214.67,310.16 C214.86,309.44 214.87,308.88 214.73,308.51 C215.90,309.04 217.74,309.93 219.73,310.94 C227.80,315.04 233.74,316.20 246.77,316.21 C259.49,316.22 265.24,314.68 272.76,309.24 C273.46,308.74 274.02,308.35 274.47,308.08 C274.39,308.14 274.31,308.22 274.23,308.29 C273.27,309.16 271.15,310.61 269.50,311.52 C266.88,312.98 266.81,313.10 269.00,312.53 C270.38,312.17 272.29,311.62 273.25,311.32 C274.66,310.87 275.00,311.37 275.00,313.92 C275.00,316.46 274.32,317.47 271.50,319.13 C269.58,320.27 268.00,321.38 268.00,321.60 C268.00,321.83 268.09,321.97 268.28,322.00 C267.14,322.53 265.88,323.04 264.50,323.51 C257.70,325.85 238.56,326.44 230.35,324.57 ZM 238.76 186.43 C233.40,183.53 230.75,173.00 233.90,167.16 C235.32,164.53 242.20,161.06 246.05,161.02 C249.77,160.99 256.66,166.44 257.99,170.47 C259.08,173.78 258.21,179.83 256.25,182.53 C252.51,187.70 244.41,189.50 238.76,186.43 ZM 151.00 235.49 C151.00,235.67 151.00,235.84 151.00,236.01 C150.89,232.55 150.30,228.86 149.34,227.40 C146.31,222.77 145.84,215.52 148.13,208.54 C148.77,206.62 149.66,204.47 150.55,202.68 L 152.34 201.51 C153.28,200.90 154.10,200.10 154.58,199.41 L 154.28 203.15 C153.98,206.81 154.08,211.98 154.50,214.65 L 155.26 219.50 L 157.05 215.51 C157.24,216.57 159.09,215.98 160.34,214.55 C159.58,215.90 159.00,217.08 159.00,217.32 C159.00,218.11 169.85,212.67 174.92,209.38 C172.93,210.81 173.07,211.00 174.84,211.00 C176.10,211.00 176.84,211.44 176.50,212.00 C176.16,212.55 176.12,213.00 176.42,213.00 C177.03,213.00 179.78,207.84 179.86,206.71 C179.95,206.72 180.00,206.77 180.00,206.85 C180.00,209.78 171.31,220.14 164.32,225.54 C160.06,228.83 156.75,232.22 154.88,235.07 C154.79,234.49 154.17,233.96 153.00,233.23 C151.14,232.07 151.00,232.23 151.00,235.49 ZM 344.04 195.73 C332.45,172.33 307.37,152.56 278.03,143.34 C280.99,144.23 281.00,143.88 280.05,142.09 C279.13,140.37 279.33,140.23 282.01,140.65 C284.49,141.04 285.33,140.86 284.72,140.39 C290.55,142.70 298.73,146.39 300.00,147.42 C300.83,148.08 303.67,149.72 306.32,151.06 C317.25,156.60 334.62,172.74 343.21,185.33 C345.20,188.26 347.83,192.86 350.28,197.56 C350.03,197.62 349.73,197.81 349.36,198.12 C348.27,199.02 347.50,198.86 345.87,197.39 L 344.04 195.73 ZM 298.42 257.39 C299.75,256.88 299.99,254.74 299.95,243.64 L 299.89 230.50 L 297.65 235.02 C295.52,239.31 294.32,242.12 289.91,253.25 L 288.03 258.00 L 292.43 258.00 C294.85,258.00 297.55,257.73 298.42,257.39 ZM 102.00 152.14 C102.00,152.90 102.32,153.02 102.82,152.45 C103.62,151.53 104.74,150.11 105.86,148.63 C104.50,150.66 102.88,153.06 101.21,155.52 C91.49,169.80 84.11,185.15 79.10,201.10 C80.91,194.61 82.70,189.44 84.18,186.66 C84.93,185.26 84.85,184.53 83.88,183.93 C83.38,183.62 82.88,183.41 82.56,183.36 C83.43,181.28 84.31,179.32 85.16,177.56 C82.42,183.97 85.45,183.04 89.07,175.87 C91.76,170.52 91.83,170.13 89.96,170.82 C89.12,171.13 87.80,172.68 86.65,174.61 C89.74,168.66 93.84,161.87 100.46,151.76 C100.53,151.76 100.65,151.72 100.81,151.62 C101.49,151.20 102.00,151.42 102.00,152.14 ZM 233.00 430.33 C229.35,430.07 224.78,429.50 220.00,428.78 C219.98,428.65 219.64,428.42 219.00,428.00 C217.84,427.25 218.18,427.01 220.50,426.93 C222.15,426.87 219.94,426.18 215.58,425.39 C211.23,424.60 204.28,423.09 200.15,422.04 C197.56,421.37 195.12,420.87 193.55,420.66 C194.95,420.79 197.04,421.24 200.07,422.01 C207.58,423.93 220.26,426.35 231.77,428.06 C235.60,428.63 244.14,428.32 253.78,427.49 C250.88,427.99 248.90,428.79 251.00,429.03 C251.83,429.12 251.38,429.60 250.00,430.09 C249.14,430.39 248.72,430.58 248.76,430.66 C243.46,430.81 238.20,430.70 233.00,430.33 ZM 71.13 236.19 C71.20,237.46 71.67,236.02 72.16,233.00 C72.36,231.83 72.56,230.65 72.76,229.47 C71.13,241.52 70.77,253.74 71.69,265.97 C71.30,263.18 71.00,263.32 70.98,267.08 C70.97,269.66 70.73,270.13 70.00,269.00 C69.63,268.42 69.39,268.14 69.24,268.18 C68.85,257.90 69.01,243.81 69.56,234.46 C69.65,234.60 69.77,234.64 69.92,234.55 C70.56,234.15 71.05,234.82 71.13,236.19 ZM 300.00 262.44 L 300.00 258.88 L 295.65 259.52 C295.29,259.30 294.33,259.00 292.75,258.62 C291.12,258.23 290.00,258.38 290.00,258.98 C290.00,259.50 291.23,259.93 292.80,259.99 C288.66,260.80 285.59,261.92 286.19,262.52 C287.23,263.57 294.69,265.86 297.25,265.93 C299.75,265.99 300.00,265.67 300.00,262.44 ZM 395.02 344.19 C395.04,345.71 398.86,339.75 402.01,333.61 C399.61,338.46 397.01,343.07 394.15,347.54 L 391.00 351.00 C388.85,353.37 388.03,353.85 388.47,352.50 C389.08,350.61 388.91,350.50 385.83,354.55 C390.47,347.92 394.64,340.91 398.35,333.50 C404.09,322.06 408.34,311.63 411.47,300.97 C410.28,305.24 408.96,309.47 407.55,313.50 C406.89,315.40 406.91,315.40 408.04,313.63 C408.86,312.34 409.46,312.12 409.95,312.92 C410.19,313.31 410.91,312.05 411.78,309.82 C410.93,312.32 410.06,314.73 409.17,317.08 C409.63,315.48 409.33,315.36 407.96,315.72 C405.80,316.28 404.99,318.99 406.47,320.65 C406.85,321.07 407.20,321.41 407.41,321.57 C406.46,323.91 405.48,326.19 404.48,328.41 C406.03,324.80 406.33,323.11 405.61,322.44 C404.82,321.72 403.56,323.41 401.28,328.25 C399.51,332.01 398.54,334.78 399.13,334.42 C399.76,334.03 400.05,334.48 399.85,335.55 C399.66,336.53 398.87,337.54 398.11,337.80 C397.27,338.08 397.00,337.82 397.42,337.13 C397.80,336.51 397.88,336.00 397.58,336.00 C397.28,336.00 396.10,337.85 394.95,340.10 C393.79,342.36 393.34,343.91 393.93,343.55 C394.52,343.18 395.01,343.47 395.02,344.19 ZM 314.78 263.59 L 317.50 262.16 L 314.73 261.10 C313.20,260.51 310.05,259.91 307.73,259.77 C303.59,259.51 303.49,259.57 303.18,262.90 L 302.85 266.29 L 307.46 265.66 C309.99,265.31 313.29,264.38 314.78,263.59 ZM 201.36 263.77 C204.28,262.27 201.81,260.73 195.64,260.22 C190.79,259.82 190.14,260.00 189.54,261.88 C189.17,263.03 189.14,264.42 189.48,264.97 C189.77,265.44 191.47,265.56 193.53,265.43 C193.39,265.59 193.37,265.79 193.50,266.00 C193.84,266.55 194.51,267.00 195.00,267.00 C195.49,267.00 196.16,266.55 196.50,266.00 C196.72,265.65 196.52,265.34 196.05,265.16 C198.13,264.86 200.19,264.37 201.36,263.77 ZM 186.82 262.75 C187.12,260.11 186.95,260.00 182.63,260.00 C177.35,260.00 172.25,261.67 173.59,262.96 C174.94,264.27 181.13,265.89 184.00,265.68 C185.93,265.54 186.57,264.87 186.82,262.75 ZM 303.28 419.02 C303.33,419.67 303.46,420.03 303.99,420.06 C294.53,423.50 284.74,426.14 274.84,427.93 C275.35,427.82 275.90,427.69 276.50,427.56 C279.80,426.81 281.60,426.15 280.50,426.09 C278.82,425.99 278.74,425.81 280.00,424.95 C280.74,424.44 280.73,424.23 279.86,424.27 C284.36,423.52 288.30,422.72 291.19,421.93 C294.87,420.91 299.63,419.18 304.81,417.02 C303.85,417.66 303.23,418.37 303.28,419.02 ZM 420.54 239.65 C420.83,245.22 420.90,251.00 420.76,257.08 C420.72,258.55 420.68,259.97 420.64,261.34 C420.45,260.45 420.17,259.89 419.77,259.74 C419.01,259.45 418.57,259.90 418.21,262.11 C418.79,254.07 418.71,246.12 417.95,237.93 C418.30,240.75 418.63,242.17 418.78,241.24 C418.98,239.99 419.56,239.23 420.07,239.54 C420.26,239.66 420.41,239.70 420.54,239.65 ZM 213.90 80.11 C213.03,80.67 214.79,80.77 218.50,80.37 C225.24,79.64 226.78,79.06 222.42,78.88 L 219.50 78.76 L 222.50 78.00 C226.53,76.97 231.81,76.83 230.31,77.79 C229.81,78.11 233.70,78.38 239.62,78.50 C237.00,78.60 234.38,78.76 231.75,78.98 C220.67,79.92 210.13,81.70 200.00,84.37 C200.51,84.24 201.01,84.10 201.50,83.97 C207.55,82.38 211.75,81.06 210.83,81.04 C209.92,81.02 209.02,80.55 208.83,80.00 C208.55,79.16 201.20,80.89 193.53,83.17 C196.66,82.16 199.79,81.27 202.92,80.48 C206.01,79.70 210.04,78.90 214.45,78.17 C213.22,78.45 212.76,78.67 213.40,78.80 C214.92,79.12 215.02,79.38 213.90,80.11 ZM 277.34 78.33 C280.88,78.99 283.27,79.63 283.58,80.13 C283.88,80.61 285.55,81.01 287.31,81.01 C288.03,81.02 289.05,81.16 290.29,81.43 C289.53,81.38 289.22,81.54 289.48,81.96 C289.83,82.53 289.30,83.02 288.31,83.05 C287.31,83.08 290.17,84.19 294.65,85.52 C306.86,89.13 318.74,94.31 329.97,100.79 C311.53,90.28 291.15,83.14 269.76,80.07 C271.27,80.18 272.93,80.41 273.91,80.67 C275.59,81.12 276.10,80.97 275.60,80.16 C275.16,79.45 275.56,79.00 276.61,79.00 C277.56,79.00 278.14,78.80 277.90,78.57 C277.83,78.50 277.64,78.42 277.34,78.33 ZM 176.61 91.28 C176.95,91.62 180.22,90.76 183.86,89.38 C185.90,88.61 189.27,87.51 192.90,86.41 C181.44,89.98 170.49,94.75 159.88,100.79 C163.72,98.49 165.56,96.90 165.14,96.22 C164.88,95.81 163.97,95.91 162.61,96.41 C167.01,94.04 171.49,91.84 176.03,89.84 C176.01,89.88 176.00,89.91 176.00,89.95 C176.00,90.34 176.28,90.94 176.61,91.28 ZM 74.78 288.02 C76.22,295.12 78.12,302.18 80.45,309.17 C79.36,306.10 78.53,303.73 78.40,303.25 C78.22,302.56 77.34,302.00 76.46,302.00 C75.90,302.00 75.51,302.02 75.38,302.44 C74.28,298.70 73.30,294.98 72.45,291.30 C72.72,291.53 73.09,291.67 73.50,291.67 C74.70,291.67 75.15,290.11 74.78,288.02 ZM 321.85 411.68 C321.38,412.25 321.58,412.40 322.45,412.12 C321.84,412.42 321.23,412.72 320.61,413.02 C320.18,413.23 319.74,413.45 319.31,413.65 C319.48,413.32 319.52,412.90 319.33,412.42 C318.85,411.15 318.74,410.87 317.70,411.20 C325.18,407.58 332.46,403.63 337.83,400.16 C340.84,398.21 343.76,396.21 346.59,394.15 C344.24,395.88 341.85,397.55 339.43,399.17 C334.99,402.13 331.53,405.10 331.76,405.77 C331.98,406.42 332.38,406.66 333.63,406.13 C331.96,407.10 330.26,408.05 328.50,408.99 C329.11,408.43 329.12,407.97 328.67,407.49 C327.79,406.55 326.84,406.64 324.37,407.89 C322.62,408.78 321.62,409.66 322.14,409.85 C322.67,410.04 322.55,410.84 321.85,411.68 ZM 269.50 428.00 C269.23,428.44 269.10,428.73 269.38,428.83 C263.11,429.77 256.82,430.36 250.57,430.60 C250.85,430.57 251.16,430.54 251.50,430.50 C253.70,430.24 257.52,429.96 260.00,429.87 C262.64,429.79 263.50,429.54 262.09,429.27 C260.22,428.92 260.00,428.62 261.09,427.92 C262.02,427.34 261.05,427.06 258.16,427.08 C263.64,426.54 269.30,425.86 274.52,425.10 C272.85,425.38 271.01,425.69 269.50,425.94 C266.42,426.45 265.58,426.81 267.31,426.88 C268.90,426.95 269.85,427.43 269.50,428.00 ZM 130.50 119.68 C130.36,121.61 130.93,121.37 135.42,117.62 C135.50,117.55 135.58,117.49 135.65,117.42 C130.17,122.15 122.60,129.27 116.99,134.90 C117.75,134.09 118.56,133.24 119.39,132.38 C124.97,126.58 128.57,122.05 128.26,121.24 C128.08,120.78 127.75,120.64 127.20,120.87 C129.95,118.46 132.81,116.11 135.76,113.82 C132.66,116.44 130.58,118.61 130.50,119.68 ZM 72.47 273.85 C73.03,278.44 73.77,283.02 74.69,287.58 C74.54,286.92 74.31,286.22 74.00,285.50 C73.23,283.71 73.13,283.69 73.07,285.31 C73.03,286.43 72.55,286.84 71.83,286.39 C71.63,286.27 71.47,286.20 71.34,286.18 C70.82,283.53 70.37,280.93 70.01,278.40 C70.43,280.09 71.00,281.00 71.66,281.00 C72.72,281.00 72.90,279.61 72.47,273.85 ZM 404.25 176.88 C411.48,191.97 416.12,206.12 418.60,221.37 C417.62,216.00 417.00,214.33 417.00,217.25 C417.00,218.12 416.55,218.98 416.00,219.17 C415.35,219.38 415.32,220.63 415.90,222.65 C416.39,224.35 417.13,229.53 417.58,234.31 C416.89,228.39 415.86,222.33 414.48,216.00 C414.38,215.55 414.28,215.11 414.18,214.66 C414.41,215.38 414.62,215.63 414.75,215.24 C414.98,214.55 415.58,214.24 416.09,214.55 C419.22,216.49 411.59,192.43 404.25,176.88 ZM 180.54 415.57 C184.90,417.25 190.00,419.64 190.00,420.27 C190.00,421.84 185.52,420.78 179.01,418.17 C181.60,419.07 182.98,419.17 183.65,418.56 C184.47,417.81 183.64,417.00 180.54,415.57 ZM 141.92 393.96 C147.93,398.46 154.18,402.55 160.61,406.14 C157.57,404.61 155.24,403.58 155.53,404.04 C155.85,404.57 155.55,405.00 154.86,405.00 C154.08,405.00 153.96,405.34 154.55,405.89 C154.62,405.95 154.72,406.03 154.84,406.12 C154.09,405.68 153.34,405.24 152.60,404.80 C153.12,404.93 152.64,404.24 151.40,402.85 C149.50,400.71 149.50,400.71 152.00,401.87 C154.10,402.85 154.20,402.84 152.66,401.77 C148.93,399.21 145.35,396.60 141.92,393.96 ZM 150.63 262.75 C151.55,266.18 153.00,265.43 153.00,261.53 C153.00,258.86 152.66,258.19 151.50,258.64 C149.83,259.28 149.77,259.55 150.63,262.75 ZM 265.59 79.53 C261.25,79.02 256.86,78.67 252.45,78.50 C257.73,78.40 260.71,78.17 259.50,77.90 C256.78,77.30 256.89,77.23 260.75,77.12 C263.91,77.03 265.00,77.38 265.00,78.50 C265.00,78.94 265.19,79.28 265.59,79.53 ZM 316.05 413.56 C316.51,414.11 317.10,414.38 317.67,414.43 C315.91,415.24 314.13,416.03 312.33,416.79 C312.97,416.29 313.02,415.87 312.62,415.44 C312.04,414.81 310.59,414.83 309.00,415.22 C311.19,414.26 313.41,413.24 315.64,412.19 C315.39,412.53 315.54,412.95 316.05,413.56 ZM 338.24 260.79 C339.23,261.99 339.55,261.77 340.16,259.48 C340.57,257.97 341.93,255.56 343.18,254.12 C344.44,252.68 343.58,253.27 341.26,255.43 C337.84,258.62 337.28,259.63 338.24,260.79 ZM 187.02 249.75 C187.01,252.09 187.45,254.00 188.00,254.00 C189.28,254.00 189.28,248.97 188.00,247.00 C187.29,245.90 187.03,246.64 187.02,249.75 ZM 300.00 262.58 C300.00,265.72 302.35,265.37 302.82,262.17 C303.03,260.73 302.61,260.00 301.57,260.00 C300.55,260.00 300.00,260.90 300.00,262.58 ZM 336.43 236.89 C337.76,239.03 339.00,237.97 338.92,234.75 C338.88,232.96 338.59,232.18 338.27,233.00 C337.96,233.82 337.26,234.79 336.72,235.14 C336.18,235.49 336.05,236.28 336.43,236.89 ZM 130.76 235.54 C131.37,238.73 131.58,238.47 132.39,233.50 C132.97,229.98 132.88,229.71 131.66,231.25 C130.90,232.21 130.50,234.15 130.76,235.54 ZM 375.24 371.67 C374.05,372.95 372.83,374.23 371.57,375.53 C372.24,374.67 372.55,374.08 372.41,373.85 C371.75,372.79 373.76,370.00 375.18,370.00 C375.70,370.00 375.82,370.56 375.45,371.25 C375.36,371.41 375.29,371.55 375.24,371.67 ZM 419.09 252.50 C419.07,255.55 419.29,256.11 420.03,254.84 C420.64,253.79 420.65,252.31 420.06,250.84 C419.24,248.79 419.12,249.00 419.09,252.50 ZM 212.00 427.45 C209.84,427.06 207.72,426.65 205.71,426.24 C207.76,426.56 208.73,426.44 209.04,425.93 C209.57,425.08 210.26,425.06 211.63,425.85 C213.08,426.70 213.16,426.98 212.00,427.10 C211.58,427.15 211.61,427.28 212.00,427.45 ZM 406.29 189.07 C399.51,171.82 390.16,156.03 378.80,142.13 C388.70,154.11 396.99,167.32 403.14,181.30 C404.14,183.57 405.22,186.25 406.29,189.07 ZM 104.86 145.21 C109.03,139.33 113.97,133.57 119.51,128.05 C114.71,133.25 108.82,140.18 104.86,145.21 ZM 378.00 367.88 C378.00,368.43 377.55,369.16 377.00,369.50 C376.45,369.84 376.00,369.67 376.00,369.12 C376.00,368.57 376.45,367.84 377.00,367.50 C377.55,367.16 378.00,367.33 378.00,367.88 ZM 419.04 281.43 C418.06,288.32 416.58,294.65 414.37,301.87 C416.29,295.16 417.90,287.96 419.04,281.43 ZM 251.21 291.04 L 252.41 288.83 L 254.82 289.20 C253.02,289.17 252.02,289.75 251.21,291.04 ZM 153.98 307.32 C154.01,307.39 154.04,307.46 154.06,307.53 C152.83,305.31 152.00,303.37 152.00,302.42 C152.00,302.36 152.06,302.36 152.18,302.42 C152.36,303.07 152.92,304.56 153.98,307.32 ZM 335.85 197.71 C336.12,197.78 336.54,198.31 337.17,199.11 C339.47,202.01 341.18,204.59 342.35,207.05 C340.93,204.48 338.73,201.11 336.94,199.00 L 335.85 197.71 ZM 97.71 346.09 C103.60,355.48 110.52,364.42 118.23,372.67 C110.38,364.34 103.57,355.53 97.71,346.09 ZM 413.67 212.33 C413.70,212.50 413.73,212.68 413.76,212.84 C412.68,208.33 411.44,203.90 410.04,199.56 C411.86,205.00 413.28,209.87 413.67,212.33 ZM 213.71 308.07 C212.59,308.69 213.14,313.32 214.48,316.29 C214.40,316.17 214.33,316.04 214.26,315.92 C213.07,313.58 212.51,308.00 213.47,308.00 C213.51,308.00 213.59,308.02 213.71,308.07 ZM 299.81 308.30 C302.05,305.31 304.19,303.00 305.09,303.00 C305.14,303.00 305.18,303.00 305.22,303.01 C304.40,303.29 302.54,305.00 300.26,307.75 C300.11,307.93 299.96,308.12 299.81,308.30 ZM 195.64 347.29 C196.00,347.52 196.35,347.75 196.69,347.97 C193.00,345.82 190.07,343.52 190.07,342.71 C190.65,343.61 192.68,345.33 195.64,347.29 ZM 199.74 424.95 C194.54,423.73 191.00,422.61 191.00,421.97 C191.00,421.82 191.01,421.67 191.04,421.55 C191.09,422.46 193.65,423.42 199.66,424.93 C199.69,424.93 199.71,424.94 199.74,424.95 ZM 347.64 277.20 C347.82,277.91 347.44,280.36 346.83,283.13 C346.84,283.06 346.85,283.00 346.86,282.93 L 347.64 277.20 ZM 157.29 102.29 C152.27,105.25 147.33,108.51 142.43,112.06 C147.17,108.51 151.93,105.39 157.29,102.29 ZM 100.65 355.80 C98.93,353.35 97.20,350.78 95.54,348.20 C93.59,345.17 91.68,341.87 89.83,338.38 C92.98,344.18 96.54,349.89 100.65,355.80 ZM 70.35 226.31 C70.51,225.45 70.68,224.89 70.86,224.67 C71.61,223.76 71.96,222.33 71.63,221.49 C70.82,219.36 73.34,209.23 76.94,198.43 C73.01,210.35 70.88,219.53 71.63,221.49 C71.96,222.33 71.78,223.58 71.24,224.26 C70.92,224.66 70.62,225.40 70.35,226.31 ZM 142.23 278.26 L 142.40 279.00 C142.63,279.99 142.83,281.55 142.93,282.94 C142.78,282.29 142.65,281.64 142.56,281.00 C142.38,279.75 142.24,278.83 142.23,278.26 ZM 290.23 317.08 C291.01,316.92 290.90,317.46 289.75,318.75 C289.68,318.83 289.60,318.93 289.51,319.05 C290.05,318.06 290.33,317.32 290.23,317.08 ZM 167.27 409.65 C170.19,411.12 172.78,412.69 173.09,413.18 C173.37,413.61 173.89,413.89 174.35,413.87 C173.92,413.95 173.42,413.73 173.14,413.31 C172.83,412.85 170.31,411.33 167.27,409.65 ZM 318.69 177.07 C318.51,176.56 318.45,176.22 318.52,176.15 C319.01,175.65 321.55,177.57 324.11,180.06 C324.08,180.03 324.04,179.99 324.00,179.96 C319.71,176.19 318.33,175.32 318.69,177.07 ZM 305.49 303.97 C305.43,304.20 305.32,304.46 305.17,304.75 C304.87,305.33 304.40,306.99 303.93,309.05 C304.00,307.78 304.49,305.96 305.04,304.93 C305.24,304.56 305.39,304.24 305.49,303.97 ZM 164.58 247.98 C165.41,246.28 166.26,245.00 166.58,245.00 C166.77,245.00 166.86,245.86 166.85,247.24 C166.83,247.06 166.81,246.90 166.79,246.75 C166.48,244.71 166.27,244.82 164.58,247.98 ZM 184.89 305.80 C184.90,305.82 184.91,305.83 184.92,305.85 C185.48,306.90 186.01,308.72 186.12,309.99 C185.72,308.49 185.30,307.04 184.89,305.80 ZM 228.03 76.25 C234.25,75.52 240.11,75.04 244.13,75.01 C240.21,75.08 233.92,75.61 228.03,76.25 ZM 247.92 75.07 C252.94,75.26 259.30,75.83 265.25,76.55 C259.30,75.88 252.52,75.28 247.92,75.07 ZM 202.79 323.17 C202.00,321.71 201.27,320.46 200.78,319.75 C199.86,318.44 199.42,317.62 199.54,317.31 C199.62,317.80 200.13,318.78 200.93,319.90 C201.75,321.05 202.45,322.31 202.79,323.17 ZM 170.65 328.34 C170.73,328.45 170.81,328.55 170.89,328.65 C169.74,327.32 169.00,326.33 169.00,326.07 C169.00,326.00 169.06,325.95 169.18,325.93 C169.36,326.43 169.92,327.35 170.65,328.34 ZM 167.68 266.72 C167.40,266.12 167.17,266.51 166.75,267.99 L 167.34 265.50 L 167.68 266.72 ZM 316.04 90.45 C319.34,91.88 322.42,93.34 324.98,94.70 C329.83,97.29 334.51,100.02 339.01,102.90 C334.51,100.03 329.84,97.31 325.00,94.74 C322.39,93.35 319.30,91.88 316.04,90.45 ZM 276.55 313.60 C276.24,315.13 275.48,316.55 274.28,317.86 C275.31,316.61 276.09,315.12 276.55,313.60 ZM 346.52 223.39 L 346.69 222.50 L 347.31 223.87 C347.17,223.67 347.04,223.52 346.92,223.45 C346.78,223.36 346.64,223.34 346.52,223.39 ZM 415.70 282.68 C416.35,278.92 416.90,275.05 417.36,271.03 C417.02,274.62 416.45,278.56 415.70,282.68 ZM 315.18 287.25 L 316.53 285.11 L 316.55 285.64 C316.24,285.80 315.77,286.34 315.18,287.25 ZM 189.32 307.95 C189.09,307.70 188.84,307.44 188.56,307.15 C186.15,304.63 184.67,303.42 184.24,303.57 C184.37,303.25 185.18,303.86 186.98,305.50 C187.75,306.20 188.53,307.03 189.32,307.95 ZM 348.33 254.35 C348.80,253.35 349.36,252.03 349.75,251.00 C349.96,250.45 350.13,250.08 350.28,249.93 C350.16,250.20 350.01,250.56 349.83,251.00 C349.41,252.01 348.82,253.33 348.33,254.35 ZM 320.24 325.27 C320.44,325.23 320.56,325.23 320.61,325.27 C320.86,325.53 320.50,326.37 319.75,327.49 C320.58,326.16 320.75,325.41 320.24,325.27 ZM 154.10 197.39 L 154.81 196.50 L 154.76 197.16 C154.62,197.05 154.40,197.12 154.10,197.39 ZM 369.47 127.29 C380.49,138.31 389.93,150.73 397.83,164.59 C389.93,150.73 380.48,138.30 369.47,127.29 ZM 344.86 280.13 C346.35,278.27 347.41,277.00 347.48,277.00 C347.49,277.00 347.49,277.00 347.50,277.00 L 344.86 280.13 ZM 308.90 236.75 C310.12,239.76 311.42,242.90 312.33,245.00 C311.27,242.60 309.87,239.22 308.90,236.75 ZM 284.64 166.49 C284.81,166.10 285.45,166.00 286.43,166.00 C286.61,166.00 286.80,166.01 287.02,166.03 C285.70,166.03 284.91,166.13 284.64,166.49 ZM 91.82 323.97 C90.84,321.74 89.83,319.32 88.90,316.98 C89.86,319.33 90.88,321.78 91.82,323.97 ZM 337.93 301.91 L 338.07 301.78 L 337.20 303.99 L 337.93 301.91 ZM 309.20 257.37 C310.26,257.53 311.29,257.73 311.99,257.93 C311.36,257.79 310.55,257.63 309.53,257.44 C309.41,257.41 309.30,257.39 309.20,257.37 ZM 174.71 287.38 C174.12,286.36 173.66,285.57 173.48,285.28 C173.49,285.25 173.50,285.23 173.51,285.24 C173.57,285.32 174.03,286.14 174.71,287.38 ZM 192.23 342.60 C192.74,342.67 193.32,342.78 193.92,342.91 C193.33,342.84 192.73,342.73 192.23,342.60 ZM 405.26 283.50 C405.37,282.78 405.53,281.89 405.71,280.91 C405.60,281.64 405.47,282.38 405.34,283.03 C405.31,283.19 405.28,283.35 405.26,283.50 ZM 280.83 138.95 C280.10,138.76 279.33,138.54 278.60,138.33 C279.37,138.52 280.02,138.70 280.50,138.85 C280.61,138.88 280.72,138.92 280.83,138.95 ZM 113.58 371.64 C112.84,371.16 111.71,370.04 110.31,368.44 C111.72,370.02 112.92,371.21 113.58,371.64 ZM 193.01 191.30 C193.35,191.25 193.60,191.26 193.67,191.34 C193.70,191.37 193.69,191.43 193.64,191.52 C193.61,191.35 193.40,191.28 193.01,191.30 ZM 155.23 304.92 C154.67,304.43 154.15,303.96 153.72,303.57 C154.16,303.94 154.67,304.39 155.20,304.89 C155.21,304.90 155.22,304.91 155.23,304.92 ZM 116.60 375.48 C116.21,374.91 116.00,374.46 116.00,374.16 C116.00,373.70 115.13,372.76 114.00,371.94 C115.13,372.75 116.00,373.70 116.00,374.14 C116.00,374.44 116.21,374.90 116.60,375.48 ZM 142.69 223.68 C142.76,223.52 142.84,223.38 142.92,223.24 C142.98,223.14 143.04,223.04 143.10,222.96 L 142.69 223.68 ZM 393.69 348.27 C393.34,348.80 392.99,349.34 392.64,349.87 L 393.69 348.27 ZM 314.30 288.68 C314.42,288.47 314.53,288.27 314.64,288.10 L 314.75 287.93 C314.60,288.16 314.46,288.42 314.30,288.68 ZM 276.60 308.41 C276.61,308.42 276.61,308.44 276.62,308.45 C276.63,308.48 276.64,308.52 276.65,308.55 C276.64,308.50 276.62,308.46 276.60,308.41 Z" fill="rgba(178,135,21,1)"/>
<path d="M 250.00 430.09 C251.38,429.60 251.83,429.12 251.00,429.03 C247.95,428.68 253.50,427.14 258.00,427.09 C261.01,427.05 262.03,427.33 261.09,427.92 C260.00,428.62 260.22,428.92 262.09,429.27 C263.50,429.54 262.64,429.79 260.00,429.87 C257.52,429.96 253.70,430.24 251.50,430.50 C248.33,430.87 248.02,430.79 250.00,430.09 ZM 214.00 428.00 C212.07,427.59 211.18,427.19 212.00,427.10 C213.16,426.98 213.08,426.70 211.63,425.85 C210.26,425.06 209.57,425.08 209.04,425.93 C208.51,426.79 206.06,426.53 199.66,424.93 C191.62,422.91 189.76,421.89 191.82,420.61 C192.26,420.34 196.01,420.98 200.15,422.04 C204.28,423.09 211.23,424.60 215.58,425.39 C219.94,426.18 222.15,426.87 220.50,426.93 C218.18,427.01 217.84,427.25 219.00,428.00 C220.33,428.86 220.33,428.96 219.00,428.85 C218.18,428.79 215.93,428.41 214.00,428.00 ZM 269.50 428.00 C269.85,427.43 268.90,426.95 267.31,426.88 C265.58,426.81 266.42,426.45 269.50,425.94 C272.25,425.48 276.08,424.84 278.00,424.52 C280.56,424.09 281.10,424.20 280.00,424.95 C278.74,425.81 278.82,425.99 280.50,426.09 C281.60,426.15 279.80,426.81 276.50,427.56 C269.13,429.22 268.73,429.25 269.50,428.00 ZM 241.82 421.98 C247.64,421.13 249.13,420.32 247.15,419.09 C246.33,418.59 247.60,418.05 250.57,417.65 C255.77,416.93 264.00,416.98 260.25,417.71 C259.01,417.94 258.00,418.78 258.00,419.57 C258.00,420.36 259.01,421.07 260.25,421.16 C263.92,421.41 249.02,422.75 242.50,422.75 L 236.50 422.75 L 241.82 421.98 ZM 303.28 419.02 C303.11,416.79 311.04,413.75 312.62,415.44 C313.43,416.30 312.39,417.12 308.55,418.63 C303.92,420.46 303.39,420.49 303.28,419.02 ZM 177.00 417.40 C171.06,415.01 156.10,407.33 154.55,405.89 C153.96,405.34 154.08,405.00 154.86,405.00 C155.55,405.00 155.85,404.57 155.53,404.04 C154.78,402.83 172.28,412.04 173.14,413.31 C173.49,413.83 174.16,414.04 174.64,413.77 C175.11,413.50 177.60,414.23 180.16,415.39 C183.57,416.93 184.50,417.78 183.65,418.56 C182.82,419.32 180.91,418.98 177.00,417.40 ZM 316.05 413.56 C315.22,412.56 315.35,412.08 316.56,411.62 C318.70,410.79 318.71,410.79 319.33,412.42 C320.06,414.32 317.43,415.23 316.05,413.56 ZM 321.85 411.68 C322.55,410.84 322.67,410.04 322.14,409.85 C321.62,409.66 322.62,408.78 324.37,407.89 C326.84,406.64 327.79,406.55 328.67,407.49 C329.53,408.41 328.71,409.23 325.21,410.93 C322.19,412.39 321.05,412.65 321.85,411.68 ZM 331.76 405.77 C331.53,405.10 334.99,402.13 339.43,399.17 C356.31,387.90 371.38,373.96 381.75,360.00 C388.71,350.63 389.29,349.98 388.47,352.50 C388.03,353.85 388.85,353.37 391.00,351.00 L 394.19 347.50 L 391.89 351.00 C386.15,359.74 372.78,376.21 375.45,371.25 C375.82,370.56 375.70,370.00 375.18,370.00 C373.76,370.00 371.75,372.79 372.41,373.85 C373.33,375.34 355.28,391.92 345.47,398.61 C333.87,406.50 332.28,407.33 331.76,405.77 ZM 378.00 367.88 C378.00,367.33 377.55,367.16 377.00,367.50 C376.45,367.84 376.00,368.57 376.00,369.12 C376.00,369.67 376.45,369.84 377.00,369.50 C377.55,369.16 378.00,368.43 378.00,367.88 ZM 144.96 399.91 C131.83,390.86 116.00,376.78 116.00,374.14 C116.00,373.64 114.91,372.52 113.58,371.64 C112.24,370.77 108.70,366.78 105.70,362.78 C93.71,346.78 85.95,332.81 79.74,316.00 C74.66,302.26 74.60,302.00 76.46,302.00 C77.34,302.00 78.22,302.56 78.40,303.25 C78.59,303.94 80.21,308.55 82.01,313.50 C95.14,349.68 117.39,377.49 152.66,401.77 C154.20,402.84 154.10,402.85 152.00,401.87 C149.50,400.71 149.50,400.71 151.40,402.85 C154.23,406.04 153.13,405.53 144.96,399.91 ZM 234.25 397.78 C233.01,397.18 232.00,396.34 232.00,395.91 C232.00,394.35 233.95,393.95 235.83,395.12 C237.86,396.40 241.00,395.74 241.00,394.04 C241.00,393.48 239.31,392.22 237.25,391.25 C232.52,389.03 231.67,385.57 235.43,383.85 C237.36,382.97 238.62,382.96 240.50,383.82 C244.27,385.54 243.64,387.21 239.50,386.43 C235.82,385.74 234.38,387.55 237.75,388.62 C244.37,390.74 246.06,394.44 241.78,397.44 C239.22,399.23 237.43,399.31 234.25,397.78 ZM 220.37 395.53 C219.64,393.61 213.22,392.38 211.73,393.87 C210.31,395.29 209.00,395.32 209.00,393.95 C209.00,393.36 210.83,390.19 213.08,386.89 C217.88,379.81 220.18,379.41 221.10,385.51 C221.42,387.71 222.04,391.19 222.46,393.25 C222.99,395.84 222.87,397.00 222.08,397.00 C221.45,397.00 220.68,396.34 220.37,395.53 ZM 219.00 389.58 C219.00,388.80 218.72,387.44 218.38,386.55 C217.83,385.10 217.63,385.12 216.41,386.72 C214.47,389.29 214.70,391.00 217.00,391.00 C218.10,391.00 219.00,390.36 219.00,389.58 ZM 266.16 393.35 C264.02,384.85 263.83,382.00 265.40,382.00 C266.44,382.00 267.27,383.88 268.09,388.05 L 269.28 394.10 L 272.39 393.44 C277.18,392.42 277.22,392.43 277.68,393.67 C278.14,394.91 276.72,395.50 270.82,396.55 C267.20,397.19 267.11,397.12 266.16,393.35 ZM 288.23 389.30 C286.47,384.63 285.00,379.77 285.00,378.59 C285.00,377.34 293.94,373.85 295.19,374.62 C296.87,375.65 295.89,376.88 292.50,378.00 C288.96,379.17 287.30,382.71 290.75,381.74 C291.71,381.47 293.12,381.08 293.88,380.87 C296.79,380.08 295.93,382.83 292.93,383.87 C290.66,384.67 289.95,385.42 290.39,386.57 C290.72,387.45 291.00,388.33 291.00,388.54 C291.00,388.74 292.86,388.26 295.13,387.46 C300.14,385.69 300.00,385.69 300.00,387.34 C300.00,388.08 298.15,389.24 295.90,389.91 C293.64,390.59 291.23,391.36 290.54,391.62 C289.83,391.90 288.83,390.89 288.23,389.30 ZM 196.38 389.25 C196.66,388.29 197.62,384.91 198.51,381.75 C200.09,376.17 201.19,374.88 202.53,377.05 C203.52,378.66 198.85,391.00 197.25,391.00 C196.40,391.00 196.06,390.32 196.38,389.25 ZM 183.67 386.33 C183.30,385.97 183.00,384.21 183.00,382.44 C183.00,377.94 177.78,375.98 176.50,380.00 C175.98,381.64 173.00,383.00 173.00,381.59 C173.00,379.69 179.21,368.00 180.21,368.02 C180.92,368.03 183.30,369.05 185.50,370.29 C190.26,372.98 191.44,377.08 188.06,379.19 C186.66,380.07 186.00,381.53 186.00,383.74 C186.00,386.84 185.13,387.80 183.67,386.33 ZM 187.43 374.88 C186.55,373.46 181.32,371.02 180.63,371.71 C179.09,373.25 180.20,375.90 182.75,376.78 C185.60,377.77 188.49,376.59 187.43,374.88 ZM 307.07 379.37 C302.91,374.07 305.89,367.00 312.27,367.00 C316.04,367.00 315.39,369.32 311.42,370.00 C305.96,370.95 307.32,379.47 312.81,378.80 C315.39,378.49 317.95,375.62 316.74,374.41 C316.36,374.03 315.40,374.25 314.61,374.91 C313.57,375.77 312.99,375.79 312.49,374.98 C312.11,374.37 311.96,373.76 312.15,373.63 C318.63,369.26 320.00,369.41 320.00,374.49 C320.00,381.23 311.16,384.56 307.07,379.37 ZM 354.42 379.80 C354.47,378.25 354.01,377.61 353.00,377.83 C351.82,378.08 362.45,366.43 372.93,356.00 C377.14,351.81 369.56,360.53 363.11,367.29 C357.55,373.14 355.98,375.38 356.83,376.23 C357.69,377.09 358.60,376.78 360.49,375.01 C364.76,371.00 363.25,373.34 358.67,377.84 C354.76,381.67 354.34,381.87 354.42,379.80 ZM 162.37 374.82 C161.91,374.09 161.52,373.20 161.52,372.84 C161.47,371.08 156.16,368.15 154.02,368.70 C150.10,369.73 152.15,366.86 158.58,362.31 C166.46,356.74 167.52,357.63 165.37,368.00 C163.63,376.42 163.53,376.65 162.37,374.82 ZM 163.00 365.38 C163.00,363.04 162.81,362.90 161.25,364.09 C160.29,364.83 159.34,365.53 159.15,365.65 C158.34,366.15 160.24,368.00 161.56,368.00 C162.45,368.00 163.00,366.99 163.00,365.38 ZM 327.66 365.49 C326.01,358.40 326.07,356.00 327.90,356.00 C328.34,356.00 331.46,357.79 334.84,359.98 C341.09,364.01 342.92,366.68 338.75,365.67 C336.17,365.04 332.40,367.67 331.86,370.49 C331.05,374.66 329.31,372.58 327.66,365.49 ZM 334.00 363.04 C334.00,362.64 332.90,361.82 331.55,361.20 C328.97,360.03 329.01,359.89 330.51,364.61 C330.93,365.92 331.31,365.99 332.51,364.99 C333.33,364.31 334.00,363.43 334.00,363.04 ZM 127.68 369.45 C126.13,368.09 124.44,367.23 123.94,367.54 C123.44,367.85 123.26,367.49 123.55,366.74 C123.83,365.99 123.16,364.55 122.05,363.55 C120.47,362.12 119.73,361.98 118.62,362.90 C117.47,363.86 116.49,363.21 113.46,359.51 C111.40,357.00 109.94,354.73 110.21,354.45 C110.49,354.18 111.79,355.54 113.11,357.47 C115.72,361.31 116.49,361.68 117.70,359.69 C118.28,358.74 120.27,360.26 124.87,365.19 C131.56,372.34 132.38,373.59 127.68,369.45 ZM 263.96 369.55 C265.02,368.27 264.85,367.87 262.86,367.07 C260.58,366.16 260.60,366.12 263.50,366.05 C265.15,366.01 267.62,365.74 269.00,365.46 C271.31,364.98 271.33,365.02 269.35,365.90 C265.71,367.53 265.59,369.00 269.11,369.00 C273.36,369.00 272.55,369.56 267.10,370.40 C263.22,370.99 262.85,370.89 263.96,369.55 ZM 140.59 358.14 C140.17,357.47 141.39,355.20 143.43,352.81 C147.08,348.54 147.77,346.59 146.00,345.50 C144.83,344.78 144.66,343.00 145.75,343.00 C147.52,343.00 155.21,350.85 154.53,351.95 C154.00,352.82 153.32,352.70 152.01,351.51 C150.33,349.99 149.93,350.19 145.76,354.60 C142.83,357.70 141.06,358.91 140.59,358.14 ZM 344.18 351.84 C340.56,348.36 339.19,346.41 339.89,345.71 C340.59,345.01 342.28,346.01 345.20,348.84 C347.55,351.13 349.74,353.00 350.07,353.00 C350.39,353.00 351.71,351.88 353.00,350.50 C355.33,348.02 357.00,347.30 357.00,348.76 C357.00,349.66 350.73,357.03 350.00,356.98 C349.73,356.97 347.11,354.66 344.18,351.84 ZM 195.64 347.29 C190.34,343.80 188.06,341.04 191.58,342.39 C192.45,342.73 194.08,343.00 195.20,343.00 C196.89,343.00 197.03,343.26 196.02,344.47 C195.01,345.70 195.41,346.31 198.40,348.07 C201.59,349.95 202.75,351.00 201.64,351.00 C201.44,351.00 198.74,349.33 195.64,347.29 ZM 256.03 345.96 C257.14,345.26 256.76,345.00 254.50,344.90 C252.53,344.81 253.37,344.46 256.94,343.86 C259.94,343.37 263.12,342.29 264.02,341.48 C266.52,339.22 267.28,339.72 264.93,342.07 C263.52,343.48 263.17,344.51 263.84,345.32 C264.56,346.20 263.49,346.55 259.68,346.69 C256.21,346.83 255.03,346.59 256.03,345.96 ZM 395.02 344.19 C395.01,343.47 394.52,343.18 393.93,343.55 C393.34,343.91 393.79,342.36 394.95,340.10 C396.10,337.85 397.28,336.00 397.58,336.00 C397.88,336.00 397.80,336.51 397.42,337.13 C397.00,337.82 397.27,338.08 398.11,337.80 C398.87,337.54 399.66,336.53 399.85,335.55 C400.05,334.48 399.76,334.03 399.13,334.42 C398.54,334.78 399.51,332.01 401.28,328.25 C403.56,323.41 404.82,321.72 405.61,322.44 C406.40,323.17 405.96,325.14 404.00,329.50 C400.79,336.66 395.05,346.05 395.02,344.19 ZM 125.19 340.96 C122.21,338.19 122.33,333.58 125.45,330.45 C130.84,325.07 138.66,329.26 138.12,337.25 C137.77,342.47 129.39,344.87 125.19,340.96 ZM 133.25 339.61 C134.26,338.84 135.00,336.96 135.00,335.16 C135.00,332.70 134.49,331.91 132.59,331.43 C129.11,330.56 126.00,332.56 126.00,335.67 C126.00,338.16 128.37,340.94 130.50,340.94 C131.05,340.94 132.29,340.34 133.25,339.61 ZM 282.75 337.83 C283.03,336.79 284.15,335.46 285.25,334.87 C286.76,334.06 287.06,334.09 286.49,335.01 C286.08,335.68 286.24,336.53 286.84,336.90 C287.49,337.30 286.76,338.03 285.10,338.66 C282.55,339.62 282.31,339.54 282.75,337.83 ZM 358.27 335.83 C352.61,331.45 352.59,331.32 357.29,325.59 C360.82,321.27 362.74,323.16 359.35,327.61 C357.53,329.99 357.02,331.42 357.72,332.12 C358.42,332.82 359.43,332.27 360.90,330.40 C362.52,328.34 363.34,327.94 364.21,328.81 C365.07,329.67 364.94,330.41 363.68,331.81 C361.61,334.09 361.54,335.61 363.46,336.35 C364.36,336.69 365.74,335.76 367.03,333.95 C368.85,331.40 372.00,329.88 372.00,331.56 C372.00,332.76 365.60,340.00 364.58,339.94 C363.99,339.91 361.15,338.06 358.27,335.83 ZM 94.42 329.75 C91.95,324.74 85.00,307.63 85.00,306.57 C85.00,306.29 85.74,306.35 86.64,306.69 C88.06,307.24 88.20,306.69 87.67,302.41 C86.99,296.93 87.31,297.28 89.40,304.29 C90.76,308.84 90.74,309.05 88.97,308.49 C87.40,307.99 87.19,308.33 87.62,310.67 C88.45,315.24 91.98,318.12 92.02,314.25 C92.03,312.75 92.17,312.72 93.00,314.00 C94.33,316.06 94.24,317.05 92.75,316.75 C89.56,316.11 93.33,327.88 97.25,330.81 C99.14,332.21 99.64,335.00 98.00,335.00 C97.45,335.00 95.84,332.64 94.42,329.75 ZM 207.01 332.02 C206.15,330.41 206.23,330.15 207.48,330.63 C208.31,330.95 209.00,331.84 209.00,332.61 C209.00,334.56 208.25,334.34 207.01,332.02 ZM 282.08 330.86 C282.03,329.35 282.66,327.96 283.52,327.63 C284.70,327.18 284.84,327.44 284.16,328.77 C283.67,329.72 283.02,331.17 282.71,332.00 C282.39,332.88 282.13,332.41 282.08,330.86 ZM 316.98 330.25 C317.90,328.35 317.79,327.99 316.29,327.96 C314.89,327.94 315.04,327.62 317.00,326.50 C321.52,323.92 321.70,325.36 317.52,330.50 C315.92,332.46 315.91,332.45 316.98,330.25 ZM 170.65 328.34 C169.64,326.98 168.96,325.73 169.15,325.57 C169.34,325.41 171.30,326.11 173.50,327.12 C176.42,328.45 176.91,328.95 175.33,328.97 C174.14,328.99 173.02,329.41 172.83,329.91 C172.65,330.41 171.67,329.70 170.65,328.34 ZM 276.00 326.57 C277.57,324.56 288.73,317.00 290.11,317.00 C290.55,317.00 289.92,318.52 288.70,320.38 C287.10,322.84 286.16,323.49 285.26,322.76 C284.40,322.07 283.31,322.26 281.76,323.37 C274.41,328.62 274.37,328.65 276.00,326.57 ZM 303.10 325.16 C304.33,321.61 305.55,320.47 306.49,321.98 C306.84,322.54 308.10,323.04 309.31,323.09 C311.12,323.16 311.01,323.32 308.64,324.03 C307.07,324.50 304.93,325.66 303.89,326.60 C302.05,328.26 302.03,328.22 303.10,325.16 ZM 112.66 323.54 C112.33,322.70 112.90,320.54 113.93,318.75 C114.96,316.96 116.11,314.43 116.50,313.13 L 117.21 310.75 L 113.10 313.07 C110.09,314.75 108.68,315.08 107.87,314.27 C107.07,313.47 107.66,312.71 110.08,311.46 C111.90,310.52 114.84,308.93 116.62,307.93 C119.29,306.43 120.04,306.35 120.96,307.46 C121.80,308.47 121.46,309.90 119.54,313.34 C116.06,319.56 116.32,320.39 120.96,318.02 C125.60,315.65 126.00,315.59 126.00,317.25 C126.00,317.94 123.45,319.85 120.33,321.50 C112.93,325.42 113.33,325.31 112.66,323.54 ZM 203.00 323.98 C203.00,323.33 202.07,321.50 200.93,319.90 C199.79,318.31 199.24,317.00 199.70,317.00 C200.72,317.00 211.00,323.86 211.00,324.55 C211.00,324.82 209.93,324.34 208.61,323.48 C206.44,322.06 206.08,322.06 204.61,323.53 C203.64,324.50 203.00,324.68 203.00,323.98 ZM 167.50 322.00 C165.67,321.21 165.71,321.14 168.00,321.09 C169.38,321.06 171.18,321.47 172.00,322.00 C173.24,322.80 173.15,322.96 171.50,322.91 C170.40,322.88 168.60,322.47 167.50,322.00 ZM 268.00 321.60 C268.00,321.38 269.58,320.27 271.50,319.13 C274.32,317.47 275.00,316.46 275.00,313.92 C275.00,311.37 274.66,310.87 273.25,311.32 C272.29,311.62 270.38,312.17 269.00,312.53 C266.81,313.10 266.88,312.98 269.50,311.52 C271.15,310.61 273.27,309.16 274.23,308.29 C275.80,306.87 276.02,306.88 276.59,308.37 C277.86,311.69 276.00,316.90 272.61,319.48 C269.52,321.84 268.00,322.54 268.00,321.60 ZM 406.47 320.65 C404.99,318.99 405.80,316.28 407.96,315.72 C409.63,315.28 409.71,315.55 408.76,318.37 C408.18,320.09 407.66,321.57 407.60,321.65 C407.55,321.73 407.04,321.28 406.47,320.65 ZM 375.00 320.15 C375.00,319.69 375.90,318.50 377.00,317.50 C379.26,315.45 379.68,312.00 377.67,312.00 C376.95,312.00 375.29,313.12 374.00,314.50 C371.44,317.22 369.08,317.68 367.20,315.80 C365.17,313.77 365.82,310.16 368.53,308.39 C371.60,306.38 372.96,307.29 370.66,309.82 C368.89,311.78 368.45,314.00 369.85,314.00 C370.31,314.00 371.49,313.11 372.48,312.03 C374.88,309.38 377.50,308.66 379.96,309.98 C382.77,311.48 382.62,316.07 379.69,318.83 C377.34,321.03 375.00,321.69 375.00,320.15 ZM 215.57 318.08 C213.38,315.66 212.18,308.00 213.98,308.00 C214.77,308.00 215.02,308.80 214.67,310.16 C214.36,311.34 214.94,314.04 215.96,316.16 C218.07,320.52 218.02,320.78 215.57,318.08 ZM 295.57 314.00 C295.99,313.17 298.11,310.36 300.26,307.75 C304.24,302.94 306.97,301.33 305.04,304.93 C304.47,306.00 303.96,307.91 303.92,309.18 C303.88,310.46 303.62,310.94 303.34,310.25 C302.47,308.11 300.25,308.87 297.47,312.25 C296.00,314.04 295.14,314.83 295.57,314.00 ZM 407.55 313.50 C412.74,298.69 416.64,281.23 417.56,268.78 C418.14,260.80 418.52,259.26 419.77,259.74 C422.81,260.91 419.34,285.79 413.47,304.91 C411.93,309.95 410.34,313.55 409.95,312.92 C409.46,312.12 408.86,312.34 408.04,313.63 C406.91,315.40 406.89,315.40 407.55,313.50 ZM 145.18 311.50 C142.73,308.39 141.01,308.27 141.74,311.25 C142.55,314.55 141.62,313.27 138.09,306.22 C135.33,300.72 135.20,300.11 137.00,301.22 C138.54,302.18 139.24,302.21 139.78,301.34 C140.21,300.65 141.98,302.95 144.20,307.09 C148.12,314.41 148.38,315.57 145.18,311.50 ZM 186.14 310.18 C186.06,308.91 185.51,306.96 184.92,305.85 C183.06,302.37 184.48,302.88 188.56,307.15 C191.58,310.30 191.87,310.86 189.83,309.57 C187.22,307.92 187.14,307.93 186.71,310.19 L 186.27 312.50 L 186.14 310.18 ZM 153.98 307.32 C151.84,301.77 151.73,301.36 152.67,302.52 C153.13,303.07 155.00,304.76 156.83,306.27 C159.61,308.55 159.83,309.00 158.16,309.00 C157.06,309.00 156.01,309.48 155.81,310.07 C155.61,310.66 154.79,309.42 153.98,307.32 ZM 334.24 307.17 C333.30,306.57 333.63,305.76 335.50,304.00 L 338.03 301.63 L 336.92 304.81 C336.30,306.57 335.74,307.99 335.65,307.98 C335.57,307.98 334.93,307.61 334.24,307.17 ZM 82.14 297.00 C82.05,296.17 81.69,294.38 81.35,293.00 C80.87,291.07 81.00,290.76 81.94,291.63 C82.61,292.25 82.96,294.05 82.73,295.63 C82.49,297.21 82.23,297.83 82.14,297.00 ZM 173.29 291.19 C173.24,287.72 173.31,285.02 173.42,285.19 C173.54,285.36 174.57,287.13 175.71,289.12 C177.45,292.17 177.53,292.72 176.21,292.62 C175.31,292.55 174.37,293.58 174.00,295.00 C173.61,296.54 173.34,295.08 173.29,291.19 ZM 90.23 290.50 C90.12,289.12 90.45,288.00 90.98,288.00 C91.51,288.00 91.67,288.69 91.35,289.54 C91.02,290.39 91.15,291.01 91.63,290.92 C92.11,290.83 94.30,290.86 96.50,290.98 C100.04,291.17 100.21,291.29 98.00,292.00 C92.85,293.65 90.45,293.19 90.23,290.50 ZM 251.19 291.06 C252.53,288.93 254.37,288.69 259.50,290.00 C262.32,290.72 262.26,290.76 258.47,290.73 C256.26,290.71 253.43,291.24 252.18,291.90 C250.04,293.05 249.98,293.00 251.19,291.06 ZM 314.07 289.09 C316.49,284.78 317.62,284.39 316.66,288.20 C316.34,289.47 315.11,291.10 313.93,291.82 C311.80,293.14 311.80,293.13 314.07,289.09 ZM 344.02 290.96 C345.30,288.58 344.50,285.26 342.54,284.81 C341.59,284.60 342.18,283.31 344.44,280.63 L 347.70 276.76 L 346.86 282.93 C346.07,288.68 344.60,293.00 343.43,293.00 C343.15,293.00 343.42,292.08 344.02,290.96 ZM 72.00 290.42 C72.00,289.73 71.70,288.38 71.33,287.42 C70.87,286.23 71.03,285.90 71.83,286.39 C72.55,286.84 73.03,286.43 73.07,285.31 C73.13,283.69 73.23,283.71 74.00,285.50 C75.38,288.72 75.15,291.67 73.50,291.67 C72.68,291.67 72.00,291.10 72.00,290.42 ZM 156.03 286.07 C155.35,284.43 152.36,281.25 149.40,279.01 C146.43,276.77 144.00,274.66 144.00,274.31 C144.00,273.97 144.82,274.43 145.83,275.35 C146.83,276.26 148.10,277.00 148.64,277.00 C149.18,277.00 150.92,278.35 152.50,280.00 C155.93,283.59 156.99,283.76 157.02,280.75 C157.02,279.51 157.37,277.96 157.80,277.30 C158.22,276.63 158.45,278.83 158.31,282.18 C158.18,285.53 157.89,288.45 157.67,288.67 C157.45,288.89 156.71,287.72 156.03,286.07 ZM 408.14 286.67 C407.39,285.76 406.30,285.31 405.73,285.67 C405.04,286.09 404.91,285.20 405.34,283.03 C405.70,281.23 406.04,278.79 406.08,277.62 C406.12,276.46 406.39,276.07 406.66,276.76 C406.94,277.45 407.59,277.75 408.11,277.43 C408.63,277.11 408.99,277.22 408.91,277.68 C408.83,278.13 408.82,279.17 408.90,280.00 C409.02,281.33 409.14,281.33 410.00,280.00 C410.80,278.77 410.95,278.85 410.87,280.50 C410.81,281.60 410.48,283.81 410.13,285.41 C409.56,288.02 409.36,288.15 408.14,286.67 ZM 142.99 284.44 C142.98,282.82 142.72,280.38 142.40,279.00 L 141.83 276.50 L 143.94 279.00 C146.97,282.59 148.55,285.46 146.95,284.47 C146.19,284.00 145.16,284.43 144.35,285.54 C143.10,287.24 143.00,287.15 142.99,284.44 ZM 332.50 285.65 C331.95,285.02 331.48,283.15 331.45,281.50 C331.43,279.85 331.07,277.38 330.66,276.00 L 329.92 273.50 L 331.42 276.00 C332.25,277.38 332.95,279.29 332.96,280.25 C333.01,282.48 334.76,282.48 337.42,280.27 C338.68,279.21 338.47,279.70 336.87,281.52 C335.43,283.16 334.08,285.02 333.87,285.65 C333.59,286.52 333.25,286.52 332.50,285.65 ZM 125.08 283.05 C124.06,282.42 124.26,282.05 125.94,281.52 C128.62,280.67 129.53,281.32 127.74,282.80 C126.99,283.42 125.86,283.53 125.08,283.05 ZM 69.64 276.36 C69.29,273.81 69.01,270.77 69.02,269.61 C69.03,267.88 69.21,267.77 70.00,269.00 C70.73,270.13 70.97,269.66 70.98,267.08 C71.01,261.32 71.69,264.07 72.39,272.75 C72.92,279.44 72.78,281.00 71.66,281.00 C70.77,281.00 70.05,279.35 69.64,276.36 ZM 166.25 269.90 C167.38,265.48 167.47,265.44 168.32,269.03 C168.76,270.86 168.42,271.88 167.09,272.71 C165.36,273.79 165.31,273.61 166.25,269.90 ZM 321.37 269.76 C321.70,268.52 321.98,267.16 321.99,266.75 C321.99,266.34 322.45,266.00 323.00,266.00 C324.66,266.00 324.12,270.74 322.38,271.41 C321.09,271.90 320.88,271.57 321.37,269.76 ZM 193.50 266.00 C193.16,265.45 193.84,265.00 195.00,265.00 C196.16,265.00 196.84,265.45 196.50,266.00 C196.16,266.55 195.49,267.00 195.00,267.00 C194.51,267.00 193.84,266.55 193.50,266.00 ZM 94.00 251.93 L 94.00 238.87 L 96.75 239.18 C98.84,239.42 99.56,240.10 99.76,242.00 C99.91,243.38 100.33,246.52 100.70,249.00 L 101.37 253.50 L 102.44 246.50 C103.50,239.58 103.55,239.50 106.79,239.18 L 110.06 238.87 L 109.78 251.67 C109.53,262.94 109.29,264.52 107.75,264.81 C106.23,265.10 105.99,264.25 105.90,258.32 C105.81,252.77 105.64,252.06 104.94,254.50 C104.47,256.15 103.82,259.22 103.49,261.31 C103.04,264.16 102.46,265.04 101.22,264.80 C100.05,264.58 99.21,262.69 98.41,258.49 L 97.26 252.50 L 97.13 258.75 C97.03,263.58 96.66,265.00 95.50,265.00 C94.24,265.00 94.00,262.88 94.00,251.93 ZM 150.63 262.75 C149.77,259.55 149.83,259.28 151.50,258.64 C152.66,258.19 153.00,258.86 153.00,261.53 C153.00,265.43 151.55,266.18 150.63,262.75 ZM 300.00 262.58 C300.00,260.90 300.55,260.00 301.57,260.00 C302.61,260.00 303.03,260.73 302.82,262.17 C302.35,265.37 300.00,265.72 300.00,262.58 ZM 384.00 263.00 C381.35,260.35 381.31,256.00 383.93,256.00 C385.15,256.00 385.98,256.80 386.18,258.17 C386.67,261.49 389.00,261.68 389.00,258.40 C389.00,256.52 387.88,254.62 385.50,252.44 C381.39,248.68 380.81,244.19 384.00,241.00 C387.57,237.43 392.19,239.03 393.40,244.25 C393.92,246.51 393.70,247.00 392.14,247.00 C391.04,247.00 390.00,246.10 389.68,244.89 C389.04,242.43 386.66,242.84 386.15,245.50 C385.92,246.66 387.18,248.50 389.62,250.54 C392.92,253.31 393.45,254.33 393.45,257.85 C393.45,264.28 388.16,267.16 384.00,263.00 ZM 338.24 260.79 C337.28,259.63 337.84,258.62 341.26,255.43 C343.58,253.27 344.44,252.68 343.18,254.12 C341.93,255.56 340.57,257.97 340.16,259.48 C339.55,261.77 339.23,261.99 338.24,260.79 ZM 175.60 259.61 C175.94,258.73 176.95,257.99 177.86,257.99 C178.76,257.98 180.44,257.72 181.58,257.41 C183.05,257.02 183.67,257.32 183.67,258.43 C183.67,259.48 182.75,260.00 180.92,260.00 C179.40,260.00 177.45,260.28 176.57,260.61 C175.40,261.06 175.14,260.79 175.60,259.61 ZM 311.09 260.16 C309.76,259.97 307.97,259.12 307.11,258.26 C305.70,256.84 305.92,256.76 309.53,257.44 C313.91,258.26 314.37,258.50 313.85,259.69 C313.66,260.14 312.41,260.35 311.09,260.16 ZM 190.68 258.40 C191.13,257.23 192.08,256.97 194.27,257.40 C195.91,257.73 197.90,258.00 198.68,258.00 C199.47,258.00 199.84,258.45 199.50,259.00 C199.16,259.55 196.90,260.00 194.47,260.00 C190.85,260.00 190.17,259.72 190.68,258.40 ZM 202.68 257.77 C199.78,254.73 191.89,235.02 192.87,233.26 C193.54,232.07 193.94,232.35 194.79,234.63 C195.38,236.21 197.93,242.41 200.45,248.40 C202.97,254.40 204.91,259.38 204.77,259.48 C204.62,259.58 203.68,258.81 202.68,257.77 ZM 290.00 258.98 C290.00,258.38 291.12,258.23 292.75,258.62 C296.68,259.56 296.81,260.00 293.17,260.00 C291.42,260.00 290.00,259.54 290.00,258.98 ZM 285.31 258.00 C289.56,246.95 293.83,238.11 294.31,239.36 C294.63,240.20 293.36,244.62 291.49,249.19 C289.62,253.76 288.05,257.05 288.01,256.50 C287.97,255.95 287.22,256.40 286.33,257.50 C285.45,258.60 284.99,258.83 285.31,258.00 ZM 315.70 256.75 C313.40,255.04 304.63,232.97 305.79,231.81 C306.33,231.27 307.42,232.83 308.50,235.70 C309.49,238.34 311.32,242.75 312.55,245.50 C315.76,252.65 317.94,258.00 317.64,258.00 C317.50,258.00 316.62,257.44 315.70,256.75 ZM 347.85 255.31 C348.37,254.31 349.26,252.38 349.83,251.00 C350.85,248.53 350.87,248.54 350.93,251.71 C350.98,253.98 350.39,255.25 348.95,256.02 C347.16,256.99 347.02,256.90 347.85,255.31 ZM 323.14 250.75 C323.06,247.59 323.21,245.00 323.47,245.00 C323.74,245.00 324.62,246.31 325.45,247.90 C326.72,250.36 326.74,250.89 325.55,251.34 C324.78,251.64 323.96,252.92 323.71,254.19 C323.47,255.46 323.21,253.91 323.14,250.75 ZM 419.09 252.50 C419.12,249.00 419.24,248.79 420.06,250.84 C420.65,252.31 420.64,253.79 420.03,254.84 C419.29,256.11 419.07,255.55 419.09,252.50 ZM 300.00 244.31 C300.00,234.69 300.15,233.81 301.47,235.56 C303.60,238.38 303.63,255.00 301.50,255.00 C300.26,255.00 300.00,253.15 300.00,244.31 ZM 187.02 249.75 C187.03,246.64 187.29,245.90 188.00,247.00 C189.28,248.97 189.28,254.00 188.00,254.00 C187.45,254.00 187.01,252.09 187.02,249.75 ZM 166.14 251.13 C166.02,249.04 165.80,248.92 164.35,250.13 C162.95,251.29 162.98,250.96 164.57,248.00 C166.27,244.82 166.47,244.71 166.79,246.75 C166.98,247.99 166.94,250.01 166.71,251.25 C166.28,253.47 166.27,253.47 166.14,251.13 ZM 176.42 247.25 C178.51,240.67 182.76,232.24 183.70,232.82 C184.69,233.44 181.15,244.00 178.69,247.76 C177.47,249.63 175.79,249.25 176.42,247.25 ZM 139.74 244.67 C138.58,241.80 138.79,239.39 140.08,240.68 C140.68,241.28 141.01,242.83 140.83,244.13 C140.52,246.22 140.39,246.28 139.74,244.67 ZM 187.00 239.50 C187.00,236.94 187.44,236.00 188.62,236.00 C189.81,236.00 190.07,236.60 189.63,238.25 C189.30,239.49 189.02,241.06 189.01,241.75 C189.01,242.44 188.55,243.00 188.00,243.00 C187.45,243.00 187.00,241.43 187.00,239.50 ZM 417.61 234.65 C417.17,229.79 416.40,224.39 415.90,222.65 C415.32,220.63 415.35,219.38 416.00,219.17 C416.55,218.98 417.00,218.12 417.00,217.25 C417.00,213.57 417.97,217.17 419.44,226.26 C421.24,237.44 421.37,240.35 420.07,239.54 C419.56,239.23 418.98,239.99 418.78,241.24 C418.58,242.48 418.05,239.52 417.61,234.65 ZM 411.72 240.67 C411.32,239.66 411.01,238.09 411.03,237.17 C411.06,235.68 411.17,235.69 412.10,237.28 C412.67,238.26 412.98,239.84 412.79,240.78 C412.47,242.35 412.38,242.34 411.72,240.67 ZM 358.10 238.50 C358.04,237.40 357.71,234.89 357.39,232.92 C356.95,230.27 357.15,229.33 358.16,229.33 C359.14,229.33 359.43,230.48 359.21,233.42 C358.81,238.64 358.27,241.11 358.10,238.50 ZM 151.00 235.49 C151.00,232.23 151.14,232.07 153.00,233.23 C155.41,234.74 155.48,235.38 153.43,237.43 C151.22,239.63 151.00,239.46 151.00,235.49 ZM 71.13 236.19 C71.05,234.82 70.56,234.15 69.92,234.55 C68.58,235.38 69.77,226.11 71.24,224.26 C71.78,223.58 71.96,222.33 71.63,221.49 C70.81,219.35 73.43,208.62 78.06,195.10 C80.21,188.83 82.10,183.57 82.26,183.41 C82.42,183.24 83.15,183.48 83.88,183.93 C84.85,184.53 84.93,185.26 84.18,186.66 C80.62,193.32 75.32,213.73 72.16,233.00 C71.67,236.02 71.20,237.46 71.13,236.19 ZM 130.76 235.54 C130.50,234.15 130.90,232.21 131.66,231.25 C132.88,229.71 132.97,229.98 132.39,233.50 C131.58,238.47 131.37,238.73 130.76,235.54 ZM 336.43 236.89 C336.05,236.28 336.18,235.49 336.72,235.14 C337.26,234.79 337.96,233.82 338.27,233.00 C338.59,232.18 338.88,232.96 338.92,234.75 C339.00,237.97 337.76,239.03 336.43,236.89 ZM 127.10 234.22 C127.15,233.27 127.53,231.38 127.93,230.00 C128.60,227.70 128.70,227.80 129.12,231.22 C129.44,233.71 129.16,235.11 128.30,235.44 C127.53,235.73 127.04,235.24 127.10,234.22 ZM 349.55 233.16 C348.94,230.46 348.42,229.92 346.80,230.34 C345.15,230.77 344.90,230.49 345.39,228.68 C345.71,227.48 345.98,225.69 345.99,224.69 C345.99,223.70 346.42,223.14 346.92,223.45 C348.20,224.24 351.26,233.73 350.73,235.25 C350.49,235.94 349.96,235.00 349.55,233.16 ZM 167.44 232.26 C167.06,230.98 166.29,230.30 165.64,230.67 C165.01,231.03 165.62,230.01 166.99,228.41 C168.35,226.81 169.82,225.06 170.25,224.53 C171.14,223.44 170.12,229.44 168.90,232.50 C168.13,234.44 168.08,234.43 167.44,232.26 ZM 141.04 227.25 C141.05,226.84 141.71,225.38 142.50,224.00 L 143.93 221.50 L 143.96 224.75 C143.99,226.99 143.53,228.00 142.50,228.00 C141.68,228.00 141.02,227.66 141.04,227.25 ZM 297.70 222.61 C297.29,221.57 297.19,220.48 297.48,220.19 C298.39,219.28 299.19,220.77 298.81,222.67 C298.46,224.41 298.41,224.41 297.70,222.61 ZM 318.91 220.25 C313.13,213.80 312.65,212.74 317.21,216.49 C321.70,220.18 323.84,223.00 322.16,223.00 C321.73,223.00 320.26,221.76 318.91,220.25 ZM 157.04 215.25 C157.14,213.00 159.64,210.16 160.85,210.91 C161.96,211.59 161.96,212.09 160.85,213.87 C159.58,215.89 156.96,216.85 157.04,215.25 ZM 330.84 215.26 C329.92,215.05 328.91,214.21 328.60,213.39 C328.23,212.44 328.44,212.15 329.16,212.60 C329.93,213.07 330.12,212.53 329.77,210.90 C329.48,209.58 329.63,207.38 330.11,206.00 C330.91,203.67 330.94,203.70 330.58,206.48 C330.36,208.12 330.85,210.75 331.67,212.32 C333.31,215.51 333.23,215.80 330.84,215.26 ZM 413.67 212.33 C412.83,207.06 407.28,190.72 403.14,181.30 C383.36,136.33 341.51,99.38 294.65,85.52 C290.17,84.19 287.31,83.08 288.31,83.05 C289.30,83.02 289.83,82.53 289.48,81.96 C287.73,79.14 312.20,87.94 325.00,94.74 C360.30,113.47 386.36,140.24 403.53,175.37 C411.08,190.82 419.33,216.56 416.09,214.55 C415.58,214.24 414.98,214.55 414.75,215.24 C414.52,215.93 414.03,214.62 413.67,212.33 ZM 336.18 208.00 C336.06,204.43 335.72,200.38 335.40,199.00 L 334.83 196.50 L 336.94 199.00 C340.01,202.63 344.33,210.00 343.73,210.60 C343.45,210.88 342.38,209.43 341.36,207.36 C338.50,201.59 337.16,201.97 336.74,208.68 L 336.38 214.50 L 336.18 208.00 ZM 176.50 212.00 C176.84,211.44 176.10,211.00 174.84,211.00 C172.79,211.00 172.92,210.75 176.03,208.61 C177.94,207.29 179.65,206.35 179.82,206.51 C180.27,206.93 177.08,213.00 176.42,213.00 C176.12,213.00 176.16,212.55 176.50,212.00 ZM 311.02 209.65 C309.23,206.79 310.33,206.73 315.08,209.43 L 319.44 211.91 L 315.80 211.70 C313.52,211.58 311.74,210.82 311.02,209.65 ZM 401.82 206.45 C401.52,205.93 400.99,204.15 400.64,202.50 L 399.99 199.50 L 401.56 202.31 C402.42,203.86 402.96,205.63 402.75,206.26 C402.53,206.92 402.14,207.00 401.82,206.45 ZM 351.55 203.40 C350.67,202.52 349.40,202.02 348.72,202.27 C348.05,202.53 346.66,201.11 345.64,199.12 L 343.79 195.50 L 345.87 197.39 C347.50,198.86 348.27,199.02 349.36,198.12 C350.45,197.21 350.89,197.34 351.36,198.73 C351.69,199.70 352.41,201.51 352.95,202.75 C354.11,205.41 353.73,205.59 351.55,203.40 ZM 151.91 200.13 C154.37,196.67 155.00,196.32 155.00,198.38 C155.00,199.15 153.80,200.55 152.34,201.51 L 149.68 203.25 L 151.91 200.13 ZM 157.07 195.75 C157.11,194.51 157.53,192.60 158.00,191.50 C158.67,189.95 158.88,190.46 158.93,193.75 C158.97,196.09 158.55,198.00 158.00,198.00 C157.45,198.00 157.03,196.99 157.07,195.75 ZM 189.69 193.64 C189.34,192.73 189.93,191.99 191.28,191.64 C194.15,190.89 194.38,191.35 192.13,193.38 C190.54,194.82 190.16,194.86 189.69,193.64 ZM 172.50 189.82 C175.15,186.57 178.05,184.49 176.55,186.91 C176.24,187.42 176.55,188.03 177.24,188.27 C178.07,188.56 177.64,189.42 176.00,190.78 C174.62,191.92 173.34,192.41 173.15,191.88 C172.95,191.33 172.10,191.47 171.15,192.21 C170.25,192.92 170.85,191.84 172.50,189.82 ZM 325.66 182.54 C324.65,181.78 323.04,181.30 322.10,181.48 C320.95,181.70 320.00,180.84 319.27,178.91 C317.82,175.06 318.63,175.24 324.00,179.96 C328.37,183.80 329.37,185.35 325.66,182.54 ZM 154.24 181.92 C154.86,180.18 152.52,179.95 149.98,181.50 C149.17,182.00 150.45,180.07 152.84,177.20 C155.23,174.34 157.45,172.00 157.77,172.00 C158.09,172.00 157.29,173.13 155.99,174.51 C154.21,176.40 153.91,177.31 154.77,178.17 C155.63,179.03 156.36,178.97 157.71,177.94 C158.69,177.18 158.38,177.90 157.00,179.53 C155.62,181.16 154.32,182.73 154.09,183.00 C153.87,183.27 153.93,182.79 154.24,181.92 ZM 85.58 176.62 C86.87,173.84 88.84,171.23 89.96,170.82 C91.83,170.13 91.76,170.52 89.07,175.87 C85.28,183.37 82.14,184.05 85.58,176.62 ZM 393.64 177.38 C392.50,175.82 392.13,174.47 392.70,173.90 C393.26,173.34 394.27,174.35 395.29,176.49 C397.24,180.58 396.33,181.07 393.64,177.38 ZM 286.81 170.25 C283.68,166.61 283.74,166.00 287.19,166.03 C289.93,166.06 290.20,166.24 288.74,167.08 C287.36,167.89 287.21,168.52 288.03,170.05 C289.32,172.47 288.79,172.56 286.81,170.25 ZM 152.07 151.23 C149.08,146.98 145.80,142.56 144.79,141.40 C143.12,139.51 143.09,139.17 144.49,138.01 C145.35,137.30 146.19,136.89 146.35,137.11 C146.52,137.32 149.05,141.00 151.98,145.28 C154.90,149.56 157.71,153.32 158.21,153.63 C158.72,153.94 161.37,152.31 164.11,150.01 C168.51,146.30 172.08,145.26 171.96,147.72 C171.93,148.47 159.73,158.26 158.24,158.73 C157.83,158.86 155.06,155.49 152.07,151.23 ZM 324.65 154.55 C317.56,147.98 326.10,135.43 335.28,138.92 C337.83,139.89 341.00,144.51 341.00,147.26 C341.00,148.01 340.43,149.39 339.74,150.34 C338.57,151.94 338.06,151.84 332.63,148.90 C327.89,146.33 326.62,145.99 325.91,147.12 C324.63,149.14 324.78,149.78 327.07,152.07 C328.60,153.60 329.86,153.97 331.97,153.51 C335.10,152.82 337.16,154.65 334.88,156.10 C332.21,157.79 327.35,157.05 324.65,154.55 ZM 335.40 142.31 C334.42,141.59 332.83,141.00 331.87,141.00 C328.58,141.00 328.94,142.89 332.72,145.47 L 336.50 148.04 L 336.84 145.83 C337.05,144.54 336.44,143.07 335.40,142.31 ZM 102.00 152.14 C102.00,151.42 101.49,151.20 100.81,151.62 C97.28,153.80 116.24,130.78 124.24,123.18 C126.77,120.78 127.88,120.24 128.26,121.24 C128.57,122.05 124.97,126.58 119.39,132.38 C114.23,137.75 110.00,142.38 110.00,142.68 C110.00,143.15 105.10,149.82 102.82,152.45 C102.32,153.02 102.00,152.90 102.00,152.14 ZM 275.50 142.53 L 271.50 141.21 L 274.75 141.10 C276.54,141.05 278.00,140.52 278.00,139.94 C278.00,139.36 277.66,139.09 277.25,139.34 C276.84,139.59 275.84,139.08 275.03,138.20 C273.73,136.80 273.76,136.69 275.22,137.25 C276.13,137.60 278.70,138.38 280.94,138.98 C285.67,140.26 286.36,141.33 282.01,140.65 C279.33,140.23 279.13,140.37 280.05,142.09 C281.22,144.29 280.93,144.32 275.50,142.53 ZM 179.75 140.92 C178.63,140.27 178.00,138.69 178.00,136.54 C178.00,133.24 179.90,130.93 185.62,127.30 C187.18,126.31 187.26,125.94 186.09,125.14 C183.77,123.57 178.00,126.74 178.00,129.60 C178.00,131.36 176.67,132.03 175.11,131.07 C172.93,129.72 176.55,124.09 180.70,122.35 C186.22,120.05 189.11,121.78 193.42,129.98 C196.46,135.77 196.76,136.88 195.41,137.40 C194.53,137.73 193.40,137.75 192.89,137.43 C192.38,137.12 190.58,138.01 188.90,139.43 C185.69,142.13 182.67,142.62 179.75,140.92 ZM 187.37 136.93 C190.46,134.49 191.02,130.00 188.22,130.00 C185.37,130.00 182.00,132.92 182.00,135.39 C182.00,139.51 183.53,139.95 187.37,136.93 ZM 299.37 139.23 C297.78,138.20 304.30,123.61 306.56,123.15 C307.94,122.87 308.14,123.30 307.62,125.38 C306.98,127.93 307.03,127.96 311.45,127.35 C315.56,126.79 316.02,126.95 317.09,129.31 C317.74,130.72 317.99,132.58 317.66,133.44 C316.76,135.78 314.18,135.32 313.82,132.75 C313.32,129.25 308.23,130.05 304.75,134.17 C303.24,135.96 302.00,138.00 302.00,138.71 C302.00,140.15 301.06,140.34 299.37,139.23 ZM 231.67 138.31 C234.38,137.78 235.62,135.05 233.22,134.88 C229.00,134.60 240.17,133.12 246.00,133.19 L 252.50 133.27 L 245.00 134.29 L 237.50 135.32 L 242.50 136.45 L 247.50 137.59 L 241.10 138.29 C234.11,139.07 227.73,139.07 231.67,138.31 ZM 277.50 132.79 C274.19,130.89 273.07,128.72 273.03,124.17 C272.99,118.67 277.10,114.00 282.00,114.00 C286.12,114.00 291.00,118.71 291.00,122.67 C290.99,126.47 287.60,131.82 284.43,133.02 C281.19,134.26 279.99,134.22 277.50,132.79 ZM 284.93 128.37 C287.61,124.95 287.69,119.44 285.07,118.04 C282.22,116.51 281.17,116.74 278.45,119.45 C275.64,122.27 275.32,125.58 277.56,128.78 C279.63,131.74 282.40,131.58 284.93,128.37 ZM 206.14 124.38 C204.43,120.18 203.28,116.36 203.58,115.88 C204.39,114.56 207.00,114.82 207.00,116.22 C207.00,118.16 210.20,126.00 211.00,126.00 C211.39,126.00 212.12,123.19 212.61,119.76 C213.78,111.58 215.75,111.05 219.01,118.03 C220.33,120.84 221.80,123.38 222.29,123.68 C222.77,123.98 223.02,121.39 222.83,117.89 C222.55,112.51 222.76,111.51 224.25,111.21 C225.81,110.89 226.00,111.82 226.00,119.93 C226.00,124.92 225.59,129.00 225.08,129.00 C224.58,129.00 223.46,129.27 222.59,129.60 C221.43,130.05 220.44,128.88 218.76,125.10 C217.52,122.30 216.16,120.00 215.75,120.00 C215.34,120.00 215.00,122.16 215.00,124.80 C215.00,129.81 213.76,132.00 210.92,132.00 C209.77,132.00 208.27,129.61 206.14,124.38 ZM 247.50 127.60 C241.27,124.85 238.26,118.47 240.05,111.81 C242.60,102.35 254.19,99.03 260.47,105.97 C261.96,107.61 261.95,107.80 260.40,108.40 C259.45,108.76 257.97,108.38 257.03,107.52 C256.10,106.69 253.73,106.00 251.76,106.00 C248.99,106.00 247.59,106.70 245.59,109.08 C238.41,117.60 248.59,129.83 257.21,123.05 C259.00,121.64 260.00,121.40 260.78,122.18 C262.11,123.51 260.79,125.02 256.25,127.37 C252.50,129.31 251.44,129.34 247.50,127.60 ZM 130.50 119.68 C130.81,115.38 163.36,93.34 165.14,96.22 C165.61,96.99 163.21,98.91 158.31,101.70 C149.86,106.52 142.95,111.32 135.42,117.62 C130.93,121.37 130.36,121.61 130.50,119.68 ZM 154.63 114.52 C154.95,113.69 155.84,113.00 156.61,113.00 C158.56,113.00 158.34,113.75 156.02,114.99 C154.41,115.85 154.15,115.77 154.63,114.52 ZM 320.95 103.13 C319.54,102.78 317.07,101.45 315.45,100.18 C313.83,98.90 312.95,98.06 313.50,98.31 C314.05,98.56 316.64,99.73 319.25,100.91 C321.86,102.09 324.00,103.26 324.00,103.52 C324.00,103.79 323.89,103.95 323.75,103.88 C323.61,103.82 322.35,103.48 320.95,103.13 ZM 176.61 91.28 C176.28,90.94 176.00,90.34 176.00,89.95 C176.00,87.98 208.23,78.21 208.83,80.00 C209.02,80.55 209.92,81.02 210.83,81.04 C211.75,81.06 207.55,82.38 201.50,83.97 C195.45,85.56 187.51,88.00 183.86,89.38 C180.22,90.76 176.95,91.62 176.61,91.28 ZM 213.90 80.11 C215.02,79.38 214.92,79.12 213.40,78.80 C210.13,78.12 236.08,74.99 245.04,75.00 C253.01,75.00 276.93,77.60 277.90,78.57 C278.14,78.80 277.56,79.00 276.61,79.00 C275.56,79.00 275.16,79.45 275.60,80.16 C276.10,80.97 275.59,81.12 273.91,80.67 C272.58,80.32 270.04,80.02 268.25,80.01 C266.03,80.00 265.00,79.52 265.00,78.50 C265.00,77.38 263.91,77.03 260.75,77.12 C256.89,77.23 256.78,77.30 259.50,77.90 C261.15,78.27 254.99,78.57 245.81,78.56 C236.62,78.55 229.65,78.21 230.31,77.79 C231.81,76.83 226.53,76.97 222.50,78.00 L 219.50 78.76 L 222.42 78.88 C226.78,79.06 225.24,79.64 218.50,80.37 C214.79,80.77 213.03,80.67 213.90,80.11 Z" fill="rgba(176,138,52,1)"/>
</g>
</svg>